<svg width="22" height="23" viewBox="0 0 22 23" fill="none" xmlns="http://www.w3.org/2000/svg">
<path d="M18.3844 1.38836C15.2358 -0.462788 6.75221 -0.462788 3.60365 1.38836C-1.11919 4.17976 -1.11919 17.8429 3.60365 20.6344C6.75221 22.4854 15.2358 22.4854 18.3844 20.6344C23.1364 17.8429 23.1364 4.17976 18.3844 1.38836ZM17.8888 19.9879C14.9735 21.7214 7.04375 21.7214 4.09927 19.9879C-0.302891 17.3728 -0.302891 4.64988 4.09927 2.0348C7.0146 0.301184 14.9443 0.301184 17.8888 2.0348C22.291 4.64988 22.291 17.3728 17.8888 19.9879ZM17.2474 2.88691C14.5945 1.32958 7.45189 1.32958 4.79895 2.88691C0.804939 5.23756 0.804939 16.7557 4.79895 19.1063C7.45189 20.6637 14.5945 20.6637 17.2474 19.1063C21.2123 16.7557 21.2123 5.26693 17.2474 2.88691ZM5.70271 10.6734C5.87762 9.02797 7.56851 7.88203 9.1428 7.58821L8.88042 8.88106C8.18074 9.40996 7.74342 10.027 7.62683 10.8203C7.48104 11.8194 7.77259 12.7596 8.79295 13.171L8.61804 14.0231C8.58889 13.9643 5.41116 13.6117 5.70271 10.6734ZM11.0086 13.9937C10.8337 14.8752 10.2798 15.7273 9.52178 16.315C9.17195 16.6088 8.73465 16.7264 8.32651 16.7557C7.27698 16.8439 6.6356 16.2562 6.78136 15.6686C6.86883 15.3747 7.07289 15.1984 7.30613 15.1397C8.06412 14.9046 8.47227 15.9918 8.64719 16.4325C8.85125 16.1975 8.96786 15.9036 9.05533 15.5804C9.23025 15.1103 10.2798 9.76254 10.5713 8.38153C10.3089 8.38153 10.0174 8.41093 9.72586 8.49907L9.92992 7.47067H10.7462C10.9503 6.55978 11.5042 5.73706 12.233 5.1494C12.5829 4.85557 13.0202 4.73803 13.4283 4.70866C14.4778 4.6205 15.1192 5.20816 14.9735 5.79583C14.886 6.08966 14.6819 6.26596 14.4487 6.32473C13.6907 6.55978 13.2826 5.47261 13.1076 5.03186C12.9036 5.26693 12.7578 5.56076 12.6995 5.88397L12.3497 7.50005H13.1368L12.9327 8.44031C12.6703 8.38153 12.408 8.38153 12.1456 8.35216C11.7957 10.2914 11.3876 12.1426 11.0086 13.9937ZM16.2854 10.8497C16.1104 12.0838 15.0609 13.1416 13.9239 13.6117C12.9327 14.0231 11.7957 14.0231 11.7957 14.0231L11.9707 13.171C13.2243 12.9065 14.0405 11.9369 14.3029 10.791C14.4778 9.99761 14.2446 9.29242 13.6907 8.85168L13.9239 7.70574C15.5565 8.05833 16.5477 9.29242 16.2854 10.8497ZM7.77259 24.0722C6.89798 24.1602 6.28577 24.9242 6.6356 25.8644C7.0146 26.8047 8.67634 26.8634 9.1428 25.9527C9.69671 24.8948 8.79295 23.9841 7.77259 24.0722ZM8.61804 25.747C8.4431 26.1582 7.77259 26.3346 7.39359 25.9821C7.04374 25.6587 7.16036 24.9537 7.39359 24.748C7.48104 24.6597 7.62683 24.601 7.88919 24.5717C8.47227 24.5129 8.85125 25.1299 8.61804 25.747ZM10.7754 24.1015C10.6005 24.1602 10.513 24.1896 10.3381 24.3366C10.3089 24.0134 9.84248 24.1015 9.49263 24.1015V24.4836C9.52178 24.5717 9.72586 24.5129 9.78416 24.5717V26.8341C9.75501 26.9517 9.5801 26.893 9.49263 26.9224V27.3042H10.6588V26.9224C10.6296 26.8341 10.4255 26.893 10.3672 26.8341V26.4522C10.513 26.4522 10.7171 26.599 11.0086 26.6284C11.3001 26.6579 11.5917 26.5697 11.7957 26.4816C12.9619 25.8938 12.4371 23.6607 10.7754 24.1015ZM11.8249 25.5707C11.7083 26.1878 10.8628 26.3052 10.3672 25.9234V24.7774C10.9795 24.2779 11.9998 24.601 11.8249 25.5707ZM19.9587 26.1878C19.842 26.2172 19.7255 26.1878 19.6964 26.0995C19.5796 25.5119 19.8129 24.8067 19.5505 24.4247C19.1716 23.8664 18.0929 24.0428 17.4223 24.2189C17.4515 24.3659 17.4806 24.5129 17.5098 24.6304C17.9763 24.5717 19.1132 24.2779 19.0841 24.9831C18.0929 24.6304 16.7518 25.1886 17.2766 26.1582C17.5973 26.746 18.7342 26.6873 19.2298 26.3346C19.3173 26.6284 19.8129 26.6579 20.0461 26.4816C20.017 26.3639 19.9296 26.3346 19.9587 26.1878ZM19.0841 25.9821C18.7634 26.1582 17.8888 26.2759 17.7722 25.8644C17.6264 25.2475 18.5302 25.3356 19.0841 25.4237V25.9821ZM14.7985 25.8351C14.5653 25.2475 14.2446 24.6891 14.0114 24.1015H12.8161V24.4836C12.9036 24.5129 13.0493 24.4836 13.1076 24.5717V26.1289C13.0202 26.1582 12.9036 26.1582 12.8161 26.1878V26.5697H13.9239V26.1878C13.8365 26.1878 13.749 26.1878 13.6907 26.1289C13.7199 25.6587 13.6615 25.1005 13.7199 24.6597C14.0114 25.3062 14.3029 25.8938 14.5945 26.5403H15.0609C15.3525 25.9234 15.5857 25.2475 15.9355 24.6597V26.5403H16.8101V26.1582C16.7227 26.1289 16.5769 26.1582 16.5186 26.0702V24.5129C16.606 24.4836 16.7227 24.4836 16.8101 24.454V24.0722H15.644C15.3233 24.6891 15.0901 25.2769 14.7985 25.8351ZM4.53656 23.8958V23.3669H3.60365V23.7194C3.69112 23.749 3.80774 23.749 3.92435 23.749V23.8958C2.99144 23.8371 2.37921 24.0428 2.26259 24.8361V25.0712C2.35006 25.8351 2.99144 26.0702 3.92435 26.0114V26.1582C3.80774 26.1582 3.69112 26.1878 3.5745 26.1878V26.5403H4.85724V26.1878C4.74065 26.1582 4.62403 26.1878 4.50741 26.1289V25.9821C5.41116 26.0408 6.08168 25.8057 6.14 25.0418C6.25662 24.1015 5.52777 23.8664 4.53656 23.8958ZM3.9535 25.5707C3.66197 25.5413 3.45789 25.6 3.25382 25.5413C2.75821 25.3356 2.84568 24.454 3.37044 24.3953C3.5745 24.3659 3.74942 24.4247 3.9535 24.3953V25.5707ZM5.44033 25.3943C5.26539 25.5707 4.91556 25.5707 4.53656 25.5707V24.3659C4.88641 24.3659 5.20709 24.3072 5.41116 24.5129C5.61524 24.7187 5.64439 25.1886 5.44033 25.3943Z" fill="#222326"/>
</svg>
