<svg width="144" height="40" viewBox="0 0 144 40" xmlns="http://www.w3.org/2000/svg">
  <path d="M30.8404 32C30.8205 32 30.8007 32 30.7808 32H22.8221L18.8428 40H30.7808C30.8007 40 30.8205 40 30.8404 40C53.7614 40 72.9218 26.44 77.4981 8.34C77.5379 8.16 77.3986 8 77.2195 8C77.1001 8 77.0006 8.08 76.9609 8.18C71.5689 21.88 52.9655 32 30.8404 32Z" fill="url(#paint0_linear_626_622)"/>
  <path d="M46.6381 8C46.658 8 46.6779 8 46.6978 8H54.6564L58.6358 0H46.6978C46.6779 0 46.658 0 46.6381 0C23.7172 0 4.5567 13.56 -0.0195303 31.66C-0.0593236 31.84 0.0799517 32 0.259021 32C0.378401 32 0.477888 31.92 0.517681 31.82C5.90967 18.12 24.513 8 46.6381 8Z" fill="url(#paint1_linear_626_623)"/>

  <path d="M110.865 7.98047H113.332V32.0405H110.288V15.8205L102.866 32.0405H100.976L93.5745 15.8205V32.0405H90.5303V7.98047H92.9975L101.931 27.2605L110.865 7.98047Z" fill="black"/>
  <path d="M121.49 32.0405H118.445V7.98047H121.49V32.0405Z" fill="black"/>
  <path d="M134.183 22.1205H129.647V32.0405H126.603V7.98047H135.536C136.531 7.98047 137.466 8.16047 138.342 8.54047C139.217 8.92047 139.993 9.42047 140.65 10.0605C141.306 10.7005 141.804 11.4605 142.182 12.3205C142.56 13.1805 142.739 14.0805 142.739 15.0405C142.739 16.4405 142.46 17.5805 141.903 18.4605C141.346 19.3405 140.749 20.0205 140.092 20.5405C139.316 21.1405 138.441 21.6005 137.486 21.9005L143.336 32.0205H139.913L134.183 22.1205ZM129.647 19.4405H135.536C136.093 19.4405 136.63 19.3205 137.128 19.1005C137.625 18.8805 138.083 18.5605 138.461 18.1605C138.839 17.7605 139.157 17.3005 139.376 16.7805C139.595 16.2405 139.714 15.6805 139.714 15.0605C139.714 14.4605 139.595 13.8805 139.376 13.3405C139.157 12.8005 138.859 12.3405 138.461 11.9405C138.083 11.5405 137.625 11.2405 137.128 11.0005C136.63 10.7805 136.093 10.6605 135.536 10.6605H129.647V19.4405Z" fill="black"/>
  <linearGradient id="paint0_linear_626_622" x1="21.0453" y1="43.6396" x2="78.1707" y2="10.9515" gradientUnits="userSpaceOnUse">
    <stop offset="1" stop-color="#004BC8"/>
    <stop offset="1" stop-color="#00347F"/>
  </linearGradient>
  <linearGradient id="paint1_linear_626_623" x1="56.4341" y1="-3.63954" x2="-0.691322" y2="29.0485" gradientUnits="userSpaceOnUse">
    <stop offset="1" stop-color="#004BC8"/>
    <stop offset="1" stop-color="#00347F"/>
  </linearGradient>
</svg>
