<svg width="36" height="35" viewBox="0 0 36 35" xmlns="http://www.w3.org/2000/svg">
<path d="M32.9873 6.13857H27.3292C27.0473 6.13857 26.8189 6.4105 26.8189 6.74606C26.8189 7.08162 27.0473 7.35355 27.3292 7.35355H32.9873C33.8314 7.35355 34.5182 8.17107 34.5182 9.17596V31.5351C34.5182 32.54 33.8314 33.3575 32.9873 33.3575H27.3292C27.0473 33.3575 26.8189 33.6294 26.8189 33.965C26.8189 34.3005 27.0473 34.5725 27.3292 34.5725H32.9873C34.3942 34.5725 35.5388 33.2099 35.5388 31.5352V9.17588C35.5388 7.50108 34.3942 6.13857 32.9873 6.13857Z" fill="#0046C8"/>
<path d="M25.2877 33.3577H3.32105C2.47695 33.3577 1.79013 32.5402 1.79013 31.5353V9.17623C1.79013 8.17134 2.47695 7.35383 3.32105 7.35383H25.2877C25.5696 7.35383 25.798 7.08189 25.798 6.74633C25.798 6.41078 25.5696 6.13884 25.2877 6.13884H10.7255L26.6293 1.50143C26.903 1.42164 27.0706 1.09279 27.0035 0.766938C26.9365 0.441081 26.6596 0.24117 26.3865 0.321442L6.436 6.13892H3.32105C1.91413 6.13892 0.769531 7.50144 0.769531 9.17623V31.5353C0.769531 33.2101 1.91413 34.5727 3.32105 34.5727H25.2877C25.5696 34.5727 25.798 34.3007 25.798 33.9652C25.798 33.6296 25.5696 33.3577 25.2877 33.3577Z" fill="#0046C8"/>
<path d="M9.76325 31.6164H32.6069C32.8887 31.6164 33.1172 31.3445 33.1172 31.0089V9.70237C33.1172 9.36681 32.8887 9.09487 32.6069 9.09487H3.70081C3.41892 9.09487 3.19047 9.36681 3.19047 9.70237V31.0089C3.19047 31.3445 3.41892 31.6164 3.70081 31.6164H7.722C8.00388 31.6164 8.23233 31.3445 8.23233 31.0089C8.23233 30.6733 8.00388 30.4014 7.722 30.4014H4.21114V10.3099H32.0966V30.4015H9.76325C9.48137 30.4015 9.25292 30.6734 9.25292 31.009C9.25292 31.3445 9.48143 31.6164 9.76325 31.6164Z" fill="#0046C8"/>
<path d="M5.98704 20.3558C5.98704 20.6914 6.21548 20.9633 6.49737 20.9633H19.0362C19.3181 20.9633 19.5466 20.6914 19.5466 20.3558C19.5466 20.0202 19.3181 19.7483 19.0362 19.7483H6.4973C6.21548 19.7483 5.98704 20.0202 5.98704 20.3558Z" fill="#0046C8"/>
<path d="M6.36478 17.7976C6.36478 18.1332 6.59322 18.4051 6.87511 18.4051H18.6582C18.9401 18.4051 19.1686 18.1332 19.1686 17.7976C19.1686 17.4621 18.9401 17.1901 18.6582 17.1901H6.87511C6.59322 17.1901 6.36478 17.4621 6.36478 17.7976Z" fill="#0046C8"/>
<path d="M7.69197 15.24C7.69197 15.5755 7.92041 15.8475 8.2023 15.8475H17.3321C17.614 15.8475 17.8424 15.5755 17.8424 15.24C17.8424 14.9044 17.614 14.6325 17.3321 14.6325H8.2023C7.92041 14.6325 7.69197 14.9044 7.69197 15.24Z" fill="#0046C8"/>
<path d="M6.87511 23.5205H18.6582C18.9401 23.5205 19.1686 23.2485 19.1686 22.913C19.1686 22.5774 18.9401 22.3055 18.6582 22.3055H6.87511C6.59322 22.3055 6.36478 22.5774 6.36478 22.913C6.36478 23.2485 6.59322 23.5205 6.87511 23.5205Z" fill="#0046C8"/>
<path d="M8.2023 26.0781H17.3318C17.6137 26.0781 17.8422 25.8062 17.8422 25.4706C17.8422 25.1351 17.6137 24.8632 17.3318 24.8632H8.2023C7.92041 24.8632 7.69197 25.1351 7.69197 25.4706C7.69197 25.8062 7.92048 26.0781 8.2023 26.0781Z" fill="#0046C8"/>
<path d="M14.6396 13.4999C14.9215 13.4999 15.15 13.228 15.15 12.8924C15.15 12.5569 14.9215 12.2849 14.6396 12.2849H10.894C10.6121 12.2849 10.3837 12.5569 10.3837 12.8924C10.3837 13.228 10.6121 13.4999 10.894 13.4999H14.6396Z" fill="#0046C8"/>
<path d="M10.894 27.2112C10.6121 27.2112 10.3837 27.4831 10.3837 27.8187C10.3837 28.1542 10.6121 28.4262 10.894 28.4262H14.6396C14.9215 28.4262 15.15 28.1542 15.15 27.8187C15.15 27.4831 14.9215 27.2112 14.6396 27.2112H10.894Z" fill="#0046C8"/>
<path d="M28.8159 12.2849H22.801C22.0665 12.2849 21.4689 12.9962 21.4689 13.8706V16.8195C21.4689 17.6939 22.0665 18.4052 22.801 18.4052H28.8159C29.5504 18.4052 30.148 17.6939 30.148 16.8195V13.8706C30.148 12.9963 29.5504 12.2849 28.8159 12.2849ZM29.1274 16.8196C29.1274 17.024 28.9876 17.1903 28.8159 17.1903H22.801C22.6294 17.1903 22.4896 17.024 22.4896 16.8196V13.8707C22.4896 13.6663 22.6294 13.4999 22.801 13.4999H28.8159C28.9876 13.4999 29.1274 13.6663 29.1274 13.8707V16.8196Z" fill="#0046C8"/>
<path d="M21.9793 22.2931H23.3778C23.6597 22.2931 23.8882 22.0211 23.8882 21.6856C23.8882 21.35 23.6597 21.0781 23.3778 21.0781H21.9793C21.6974 21.0781 21.4689 21.35 21.4689 21.6856C21.4689 22.0212 21.6974 22.2931 21.9793 22.2931Z" fill="#0046C8"/>
<path d="M27.0183 21.6856C27.0183 21.35 26.7898 21.0781 26.5079 21.0781H25.1094C24.8275 21.0781 24.5991 21.35 24.5991 21.6856C24.5991 22.0211 24.8275 22.2931 25.1094 22.2931H26.5079C26.7898 22.293 27.0183 22.0211 27.0183 21.6856Z" fill="#0046C8"/>
<path d="M29.6382 22.2931C29.9201 22.2931 30.1485 22.0211 30.1485 21.6856C30.1485 21.35 29.9201 21.0781 29.6382 21.0781H28.2396C27.9577 21.0781 27.7293 21.35 27.7293 21.6856C27.7293 22.0211 27.9577 22.2931 28.2396 22.2931H29.6382Z" fill="#0046C8"/>
<path d="M23.3933 28.4258C24.4543 28.4258 25.3176 27.3983 25.3176 26.1351C25.3176 24.872 24.4544 23.8444 23.3933 23.8444C22.3322 23.8444 21.4689 24.8719 21.4689 26.1351C21.4689 27.3983 22.3321 28.4258 23.3933 28.4258ZM23.3933 25.0594C23.8916 25.0594 24.2969 25.542 24.2969 26.1351C24.2969 26.7283 23.8915 27.2108 23.3933 27.2108C22.8949 27.2108 22.4896 26.7282 22.4896 26.1351C22.4895 25.542 22.8949 25.0594 23.3933 25.0594Z" fill="#0046C8"/>
<path d="M28.2398 28.4258C29.3009 28.4258 30.1641 27.3983 30.1641 26.1351C30.1641 24.872 29.3009 23.8444 28.2398 23.8444C27.1787 23.8444 26.3155 24.8719 26.3155 26.1351C26.3155 27.3983 27.1787 28.4258 28.2398 28.4258ZM28.2398 25.0594C28.7381 25.0594 29.1435 25.542 29.1435 26.1351C29.1435 26.7283 28.7381 27.2108 28.2398 27.2108C27.7415 27.2108 27.3362 26.7282 27.3362 26.1351C27.3362 25.542 27.7415 25.0594 28.2398 25.0594Z" fill="#0046C8"/>
</svg>
