<svg width="359" height="100" viewBox="0 0 359 100" xmlns="http://www.w3.org/2000/svg">
<path d="M65.0112 73.8095C64.9716 73.8095 64.932 73.8095 64.8925 73.8095H49.0651L41.1514 89.6826H64.8925C64.932 89.6826 64.9716 89.6826 65.0112 89.6826C110.594 89.6826 148.699 62.7778 157.799 26.8651C157.878 26.508 157.601 26.1905 157.245 26.1905C157.008 26.1905 156.81 26.3492 156.731 26.5476C146.008 53.7302 109.011 73.8095 65.0112 73.8095Z" fill="url(#paint0_linear_548:246)"/>
<path d="M96.4287 26.1905C96.4682 26.1905 96.5078 26.1905 96.5474 26.1905H112.375L120.288 10.3175H96.5474C96.5078 10.3175 96.4682 10.3175 96.4287 10.3175C50.8458 10.3175 12.7413 37.2223 3.64055 73.1349C3.56141 73.4921 3.8384 73.8095 4.19451 73.8095C4.43192 73.8095 4.62976 73.6508 4.7089 73.4524C15.3924 46.2302 52.4285 26.1905 96.4287 26.1905Z" fill="url(#paint1_linear_548:246)"/>
<path d="M198.436 10.3175H200.216V27.8175H198.001V16.0318L192.58 27.8175H191.195L185.813 16.0318V27.8175H183.598V10.3175H185.378L191.867 24.3254L198.436 10.3175Z" fill="black"/>
<path d="M214.303 21.5876C214.303 22.54 214.145 23.3733 213.828 24.167C213.512 24.9606 213.116 25.5956 212.602 26.1908C212.087 26.7464 211.454 27.1829 210.742 27.5003C210.03 27.8178 209.278 27.9765 208.487 27.9765C207.695 27.9765 206.943 27.8178 206.231 27.5003C205.519 27.1829 204.886 26.7464 204.371 26.1908C203.857 25.6353 203.422 24.9606 203.105 24.167C202.789 23.3733 202.63 22.54 202.67 21.5876C202.67 20.6352 202.828 19.8019 203.105 19.0083C203.422 18.2146 203.818 17.54 204.371 16.9844C204.886 16.4289 205.519 15.9924 206.231 15.6749C206.943 15.3575 207.695 15.1987 208.487 15.1987C209.278 15.1987 210.03 15.3575 210.742 15.6749C211.454 15.9924 212.087 16.4289 212.602 16.9844C213.116 17.54 213.551 18.2146 213.828 19.0083C214.185 19.7622 214.303 20.6352 214.303 21.5876ZM204.767 21.5876C204.767 22.2622 204.886 22.8575 205.084 23.413C205.282 23.9686 205.559 24.4448 205.915 24.8416C206.271 25.2384 206.666 25.5162 207.102 25.7543C207.537 25.9527 208.012 26.0718 208.526 26.0718C209.001 26.0718 209.476 25.9527 209.911 25.7543C210.346 25.5559 210.742 25.2384 211.098 24.8416C211.454 24.4448 211.731 23.9686 211.929 23.413C212.127 22.8575 212.246 22.2622 212.246 21.5876C212.246 20.913 212.127 20.3178 211.929 19.7622C211.731 19.2067 211.415 18.7702 211.098 18.3733C210.742 17.9765 210.346 17.6987 209.911 17.4606C209.476 17.2622 209.001 17.1432 208.526 17.1432C208.051 17.1432 207.577 17.2622 207.102 17.4606C206.666 17.6591 206.231 17.9765 205.915 18.3733C205.559 18.7702 205.282 19.2464 205.084 19.7622C204.846 20.3178 204.767 20.913 204.767 21.5876Z" fill="black"/>
<path d="M227.717 25.9126V30.8729H225.778V27.8173H216.638V30.8729H214.699V25.8729H215.372C215.649 25.6745 215.886 25.4364 216.124 25.1586C216.322 24.9205 216.519 24.6427 216.717 24.2856C216.875 23.9681 216.994 23.5713 217.073 23.0951L217.904 15.3173H226.055V25.8729H227.717V25.9126ZM219.131 23.0951C219.091 23.5713 219.012 23.9681 218.854 24.2856C218.696 24.603 218.577 24.9205 218.419 25.1586C218.221 25.4364 218.063 25.6745 217.865 25.8729H223.958V17.2618H219.724L219.131 23.0951Z" fill="black"/>
<path d="M227.836 15.3173H230.052L233.811 24.9205L237.53 15.3173H239.746L234.365 28.9284C233.85 30.1983 233.336 31.0713 232.782 31.6268C232.228 32.1427 231.555 32.4205 230.764 32.4205C230.645 32.4205 230.566 32.4205 230.447 32.4205C230.368 32.4205 230.25 32.3808 230.17 32.3808C230.091 32.3808 230.012 32.3411 229.933 32.3014V30.6348C230.566 30.6348 231.041 30.476 231.358 30.1983C231.674 29.9205 231.951 29.484 232.149 28.9681L232.703 27.5792L227.836 15.3173Z" fill="black"/>
<path d="M250.389 15.3173V27.8173H248.292V17.1427H243.741L243.346 23.8094C243.267 25.1189 242.871 26.1507 242.198 26.9046C241.526 27.6189 240.655 27.9761 239.587 27.9761C239.468 27.9761 239.389 27.9761 239.27 27.9761C239.191 27.9761 239.072 27.9364 238.993 27.9364C238.914 27.9364 238.835 27.8967 238.756 27.857V26.0713H239.033C240.378 26.0713 241.13 25.3173 241.249 23.8491L241.921 15.357H250.389V15.3173Z" fill="black"/>
<path d="M258.501 19.762C259.807 19.762 260.875 20.1192 261.627 20.8731C262.379 21.6271 262.775 22.5795 262.775 23.77C262.775 24.9604 262.379 25.9128 261.627 26.6668C260.875 27.4207 259.807 27.7779 258.501 27.7779H253.357V15.2779H255.455V19.762H258.501ZM258.501 25.9128C259.134 25.9128 259.649 25.7144 260.084 25.3573C260.519 24.9604 260.717 24.4842 260.717 23.8493C260.717 23.2938 260.519 22.8176 260.084 22.3811C259.649 21.9446 259.134 21.7461 258.501 21.7461H255.455V25.9128H258.501Z" fill="black"/>
<path d="M275.159 15.3173V27.8173H273.102V22.4205H266.731V27.8173H264.634V15.3173H266.731V20.4761H273.102V15.3173H275.159Z" fill="black"/>
<path d="M283.033 19.762C284.339 19.762 285.407 20.1192 286.159 20.8731C286.911 21.6271 287.306 22.5795 287.306 23.77C287.306 24.9604 286.911 25.9128 286.159 26.6668C285.407 27.4207 284.339 27.7779 283.033 27.7779H278.166V15.2779H280.263V19.762H283.033ZM283.033 25.9128C283.666 25.9128 284.18 25.7144 284.616 25.2779C285.051 24.8414 285.249 24.3652 285.249 23.8096C285.249 23.2541 285.051 22.7779 284.616 22.3414C284.18 21.9049 283.666 21.7065 283.033 21.7065H280.263V25.8731H283.033V25.9128ZM291.303 15.3176V27.8176H289.245V15.3176H291.303Z" fill="black"/>
<path d="M304.519 24.484C304.321 24.9205 304.044 25.357 303.727 25.7935C303.411 26.23 303.055 26.5871 302.619 26.9046C302.184 27.2221 301.709 27.4602 301.195 27.6586C300.681 27.857 300.048 27.9364 299.414 27.9364C298.623 27.9364 297.871 27.7776 297.159 27.4602C296.447 27.1427 295.814 26.7062 295.299 26.1506C294.785 25.5951 294.35 24.9205 294.033 24.1268C293.716 23.3332 293.558 22.4998 293.598 21.5475C293.598 20.5951 293.756 19.7617 294.033 18.9681C294.35 18.1744 294.745 17.4998 295.26 16.9443C295.774 16.3887 296.368 15.9522 297.08 15.6348C297.792 15.3173 298.504 15.1586 299.256 15.1586C300.008 15.1586 300.72 15.3173 301.393 15.5951C302.066 15.9125 302.659 16.3094 303.134 16.8649C303.648 17.4205 304.044 18.0554 304.321 18.8491C304.637 19.603 304.756 20.476 304.756 21.4284C304.756 21.6268 304.756 21.7856 304.717 21.9046C304.717 22.0236 304.677 22.1427 304.677 22.2221C304.677 22.3411 304.637 22.4205 304.637 22.5395H295.774C295.814 22.976 295.932 23.4125 296.13 23.849C296.328 24.2856 296.605 24.6427 296.961 24.9602C297.278 25.2776 297.673 25.5157 298.069 25.7141C298.504 25.9125 298.94 26.0316 299.375 26.0316C299.771 26.0316 300.127 25.9919 300.404 25.8729C300.72 25.7538 300.997 25.6348 301.235 25.476C301.472 25.3173 301.709 25.1586 301.868 24.9998C302.026 24.8411 302.184 24.6824 302.303 24.5237H304.519V24.484ZM299.256 17.1427C298.821 17.1427 298.425 17.2221 298.029 17.4205C297.634 17.6189 297.317 17.857 297.001 18.1744C296.684 18.4919 296.407 18.8887 296.209 19.3252C296.011 19.7617 295.853 20.2379 295.774 20.7935H302.54C302.382 19.6824 302.026 18.8094 301.393 18.1348C300.799 17.4602 300.087 17.1427 299.256 17.1427Z" fill="black"/>
<path d="M194.282 58.77V45.3176L185.577 58.77H183.638V41.27H185.854V54.7223L194.559 41.27H196.497V58.77H194.282Z" fill="black"/>
<path d="M205.796 52.3809C206.112 52.5793 206.429 52.7777 206.706 53.0555C206.943 53.2936 207.141 53.5714 207.339 53.9285C207.537 54.2857 207.616 54.6825 207.616 55.1587C207.616 55.6745 207.497 56.1507 207.299 56.6269C207.101 57.0634 206.824 57.4603 206.429 57.8174C206.073 58.1745 205.598 58.4126 205.083 58.611C204.569 58.8095 203.975 58.8888 203.303 58.8888C201.918 58.8888 200.81 58.5317 200.019 57.7777C199.227 57.0237 198.792 56.111 198.713 54.9999H200.81C200.889 55.5555 201.127 56.0317 201.522 56.3888C201.918 56.746 202.511 56.9444 203.303 56.9444C204.015 56.9444 204.569 56.746 204.925 56.3888C205.321 56.0317 205.519 55.5952 205.519 55.119C205.519 54.6428 205.321 54.2063 204.925 53.8491C204.529 53.492 203.975 53.2936 203.303 53.2936H202.195V51.3491H203.303C203.857 51.3491 204.332 51.1904 204.688 50.8729C205.044 50.5555 205.242 50.1587 205.242 49.6825C205.242 49.2063 205.044 48.8095 204.688 48.492C204.332 48.1745 203.857 48.0158 203.303 48.0158C202.511 48.0158 201.958 48.2142 201.601 48.5317C201.245 48.8888 201.008 49.3253 200.968 49.8015H198.871C198.95 48.6904 199.346 47.7777 200.098 47.1031C200.85 46.3888 201.918 46.0714 203.303 46.0714C203.896 46.0714 204.45 46.1507 204.925 46.3491C205.4 46.5475 205.835 46.8253 206.191 47.1428C206.547 47.4602 206.824 47.8571 207.022 48.2936C207.22 48.7301 207.299 49.1666 207.299 49.6825C207.299 50.1587 207.22 50.5555 207.062 50.8729C206.904 51.1904 206.745 51.4682 206.508 51.7063C206.35 52.0237 206.073 52.2222 205.796 52.3809Z" fill="black"/>
<path d="M215.846 58.7698L212.126 50.992V58.7698H210.029V46.2698H211.81L216.519 55.992L221.227 46.2698H223.008V58.7698H220.911V50.992L217.191 58.7698H215.846Z" fill="black"/>
<path d="M236.224 55.4362C236.026 55.8727 235.749 56.3093 235.432 56.7458C235.116 57.1823 234.76 57.5394 234.324 57.8569C233.889 58.1743 233.414 58.4124 232.9 58.6108C232.386 58.8093 231.752 58.8886 231.119 58.8886C230.328 58.8886 229.576 58.7299 228.864 58.4124C228.152 58.095 227.519 57.6585 227.004 57.1029C226.49 56.5474 226.055 55.8728 225.738 55.0791C225.422 54.2854 225.263 53.4521 225.303 52.4997C225.303 51.5474 225.461 50.714 225.738 49.9204C226.055 49.1267 226.45 48.4521 226.965 47.8966C227.479 47.341 228.073 46.9045 228.785 46.587C229.497 46.2696 230.209 46.1108 230.961 46.1108C231.713 46.1108 232.425 46.2696 233.098 46.5474C233.77 46.8648 234.364 47.2616 234.839 47.8172C235.353 48.3728 235.749 49.0077 236.026 49.8013C236.342 50.5553 236.461 51.4283 236.461 52.3807C236.461 52.5791 236.461 52.7378 236.422 52.8569C236.422 52.9759 236.382 53.095 236.382 53.1743C236.382 53.2934 236.342 53.3727 236.342 53.4918H227.519C227.558 53.9283 227.677 54.3648 227.875 54.8013C228.073 55.2378 228.35 55.595 228.706 55.9124C229.022 56.2299 229.418 56.468 229.814 56.6664C230.249 56.8648 230.684 56.9839 231.119 56.9839C231.515 56.9839 231.871 56.9442 232.148 56.8251C232.465 56.7061 232.742 56.587 232.979 56.4283C233.217 56.2696 233.454 56.1109 233.612 55.9521C233.771 55.7934 233.929 55.6347 234.047 55.4759H236.224V55.4362ZM230.961 48.095C230.526 48.095 230.13 48.1743 229.734 48.3728C229.339 48.5712 229.022 48.8093 228.706 49.1267C228.389 49.4442 228.112 49.841 227.914 50.2775C227.717 50.714 227.558 51.1902 227.479 51.7458H234.245C234.087 50.6347 233.731 49.7616 233.098 49.087C232.504 48.4124 231.792 48.095 230.961 48.095Z" fill="black"/>
<path d="M240.814 47.6585C241.091 47.3807 241.368 47.1426 241.764 46.9045C242.08 46.7061 242.476 46.5077 242.911 46.3489C243.386 46.1902 243.9 46.1108 244.533 46.1108C245.325 46.1108 246.077 46.2696 246.789 46.587C247.501 46.9045 248.134 47.341 248.648 47.8966C249.163 48.4521 249.598 49.1267 249.875 49.9204C250.192 50.714 250.35 51.5474 250.35 52.4997C250.35 53.4521 250.192 54.2854 249.875 55.0791C249.559 55.8728 249.163 56.5077 248.648 57.1029C248.134 57.6585 247.501 58.095 246.789 58.4124C246.077 58.7299 245.325 58.8886 244.533 58.8886C243.9 58.8886 243.346 58.8093 242.911 58.6505C242.476 58.4918 242.08 58.2934 241.764 58.095C241.407 57.8569 241.091 57.5791 240.814 57.2616V63.2537H238.717V46.3093H240.26L240.814 47.6585ZM240.537 52.5394C240.537 53.214 240.656 53.8093 240.853 54.3648C241.051 54.9204 241.368 55.3966 241.684 55.7934C242.041 56.1902 242.436 56.468 242.911 56.7061C243.386 56.9045 243.861 57.0235 244.415 57.0235C244.929 57.0235 245.443 56.9045 245.918 56.7061C246.393 56.5077 246.789 56.1902 247.145 55.7934C247.501 55.3966 247.778 54.9204 247.976 54.3648C248.174 53.8093 248.292 53.214 248.292 52.5394C248.292 51.8648 248.174 51.2696 247.976 50.714C247.778 50.1585 247.461 49.722 247.145 49.3251C246.789 48.9283 246.393 48.6505 245.918 48.4124C245.443 48.214 244.969 48.095 244.415 48.095C243.9 48.095 243.386 48.214 242.911 48.4124C242.436 48.6108 242.041 48.9283 241.684 49.3251C241.328 49.722 241.051 50.1981 240.853 50.714C240.656 51.2696 240.537 51.8648 240.537 52.5394Z" fill="black"/>
<path d="M263.13 46.2698V58.7698H261.072V49.4841L254.702 58.7698H252.604V46.2698H254.702V55.5555L261.072 46.2698H263.13Z" fill="black"/>
<path d="M264.752 46.2698H274.565V48.2142H270.688V58.7698H268.591V48.2142H264.713V46.2698H264.752Z" fill="black"/>
<path d="M286.238 55.4362C286.041 55.8727 285.764 56.3093 285.447 56.7458C285.131 57.1823 284.774 57.5394 284.339 57.8569C283.904 58.1743 283.429 58.4124 282.915 58.6108C282.4 58.8093 281.767 58.8886 281.134 58.8886C280.343 58.8886 279.591 58.7299 278.879 58.4124C278.166 58.095 277.533 57.6585 277.019 57.1029C276.505 56.5474 276.069 55.8728 275.753 55.0791C275.436 54.2854 275.278 53.4521 275.317 52.4997C275.317 51.5474 275.476 50.714 275.753 49.9204C276.069 49.1267 276.465 48.4521 276.979 47.8966C277.494 47.341 278.087 46.9045 278.8 46.587C279.512 46.2696 280.224 46.1108 280.976 46.1108C281.728 46.1108 282.44 46.2696 283.113 46.5474C283.785 46.8648 284.379 47.2616 284.854 47.8172C285.368 48.3728 285.764 49.0077 286.041 49.8013C286.357 50.5553 286.476 51.4283 286.476 52.3807C286.476 52.5791 286.476 52.7378 286.436 52.8569C286.436 52.9759 286.397 53.095 286.397 53.1743C286.397 53.2934 286.357 53.3727 286.357 53.4918H277.494C277.533 53.9283 277.652 54.3648 277.85 54.8013C278.048 55.2378 278.325 55.595 278.681 55.9124C278.997 56.2299 279.393 56.468 279.789 56.6664C280.224 56.8648 280.659 56.9839 281.095 56.9839C281.49 56.9839 281.846 56.9442 282.123 56.8251C282.44 56.7061 282.717 56.587 282.954 56.4283C283.192 56.2696 283.429 56.1109 283.587 55.9521C283.746 55.7934 283.904 55.6347 284.023 55.4759H286.238V55.4362ZM280.976 48.095C280.541 48.095 280.145 48.1743 279.749 48.3728C279.354 48.5712 279.037 48.8093 278.72 49.1267C278.404 49.4442 278.127 49.841 277.929 50.2775C277.731 50.714 277.573 51.1902 277.494 51.7458H284.26C284.102 50.6347 283.746 49.7616 283.113 49.087C282.519 48.4124 281.807 48.095 280.976 48.095Z" fill="black"/>
<path d="M298.623 46.2698V58.7698H296.526V48.0952H291.936L291.54 54.7619C291.461 56.0714 291.065 57.1031 290.393 57.8571C289.72 58.5714 288.849 58.9285 287.781 58.9285C287.662 58.9285 287.583 58.9285 287.465 58.9285C287.385 58.9285 287.267 58.8888 287.188 58.8888C287.108 58.8888 287.029 58.8492 286.95 58.8095V57.0238H287.227C288.573 57.0238 289.324 56.2698 289.443 54.8015L290.116 46.3095H298.623V46.2698Z" fill="black"/>
<path d="M306.775 50.7143C308.081 50.7143 309.149 51.0715 309.901 51.8255C310.653 52.5794 311.048 53.5318 311.048 54.7223C311.048 55.9128 310.653 56.8651 309.901 57.6191C309.149 58.3731 308.081 58.7302 306.775 58.7302H301.631V46.2302H303.728V50.7143H306.775ZM306.775 56.8651C307.408 56.8651 307.922 56.6667 308.358 56.3096C308.793 55.9128 308.991 55.4366 308.991 54.8016C308.991 54.2461 308.793 53.7699 308.358 53.3334C307.922 52.8969 307.408 52.6985 306.775 52.6985H303.728V56.8651H306.775Z" fill="black"/>
<path d="M323.393 46.2698V58.7698H321.336V53.373H314.965V58.7698H312.868V46.2698H314.965V51.4285H321.336V46.2698H323.393Z" fill="black"/>
<path d="M331.266 50.7143C332.572 50.7143 333.64 51.0715 334.392 51.8255C335.144 52.5794 335.54 53.5318 335.54 54.7223C335.54 55.9128 335.144 56.8651 334.392 57.6191C333.64 58.3731 332.572 58.7302 331.266 58.7302H326.399V46.2302H328.497V50.7143H331.266ZM331.266 56.8651C331.899 56.8651 332.414 56.6667 332.849 56.2302C333.284 55.7937 333.482 55.3175 333.482 54.762C333.482 54.2064 333.284 53.7302 332.849 53.2937C332.414 52.8572 331.899 52.6588 331.266 52.6588H328.497V56.8255H331.266V56.8651ZM339.576 46.2699V58.7699H337.479V46.2699H339.576Z" fill="black"/>
<path d="M352.753 55.4362C352.555 55.8727 352.278 56.3093 351.962 56.7458C351.645 57.1823 351.289 57.5394 350.854 57.8569C350.418 58.1743 349.944 58.4124 349.429 58.6108C348.915 58.8093 348.282 58.8886 347.649 58.8886C346.857 58.8886 346.106 58.7299 345.393 58.4124C344.681 58.095 344.048 57.6585 343.534 57.1029C343.019 56.5474 342.584 55.8728 342.267 55.0791C341.951 54.2854 341.793 53.4521 341.832 52.4997C341.832 51.5474 341.99 50.714 342.267 49.9204C342.584 49.1267 342.98 48.4521 343.494 47.8966C344.008 47.341 344.602 46.9045 345.314 46.587C346.026 46.2696 346.739 46.1108 347.49 46.1108C348.242 46.1108 348.954 46.2696 349.627 46.5474C350.3 46.8648 350.893 47.2616 351.368 47.8172C351.882 48.3728 352.278 49.0077 352.555 49.8013C352.872 50.5553 352.99 51.4283 352.99 52.3807C352.99 52.5791 352.99 52.7378 352.951 52.8569C352.951 52.9759 352.911 53.095 352.911 53.1743C352.911 53.2934 352.872 53.3727 352.872 53.4918H344.008C344.048 53.9283 344.167 54.3648 344.365 54.8013C344.562 55.2378 344.839 55.595 345.195 55.9124C345.512 56.2299 345.908 56.468 346.303 56.6664C346.739 56.8648 347.174 56.9839 347.609 56.9839C348.005 56.9839 348.361 56.9442 348.638 56.8251C348.954 56.7061 349.231 56.587 349.469 56.4283C349.706 56.2696 349.944 56.1109 350.102 55.9521C350.26 55.7934 350.418 55.6347 350.537 55.4759H352.753V55.4362ZM347.49 48.095C347.055 48.095 346.659 48.1743 346.264 48.3728C345.868 48.5712 345.552 48.8093 345.235 49.1267C344.918 49.4442 344.641 49.841 344.444 50.2775C344.246 50.714 344.088 51.1902 344.008 51.7458H350.775C350.616 50.6347 350.26 49.7616 349.627 49.087C349.073 48.4124 348.321 48.095 347.49 48.095Z" fill="black"/>
<path d="M189.573 72.2222C190.325 72.2222 191.037 72.3809 191.71 72.6587C192.382 72.9364 192.976 73.3333 193.451 73.8491C193.965 74.365 194.361 74.9206 194.638 75.5952C194.954 76.2698 195.073 76.9444 195.073 77.6587C195.073 78.373 194.915 79.0872 194.638 79.7222C194.321 80.3968 193.926 80.9523 193.451 81.4682C192.936 81.9841 192.382 82.3412 191.71 82.6587C191.037 82.9365 190.325 83.0952 189.573 83.0952H185.854V89.7618H183.638V72.2618H189.573V72.2222ZM189.573 81.1111C190.008 81.1111 190.443 81.0317 190.839 80.873C191.235 80.7142 191.591 80.4365 191.908 80.119C192.224 79.8015 192.461 79.4444 192.62 79.0079C192.778 78.5714 192.897 78.1349 192.897 77.6587C192.897 77.1825 192.818 76.746 192.62 76.3095C192.461 75.873 192.224 75.5158 191.908 75.1984C191.591 74.8809 191.235 74.6428 190.839 74.4841C190.443 74.3253 190.008 74.2063 189.573 74.2063H185.854V81.1507H189.573V81.1111Z" fill="black"/>
<path d="M206.983 86.3887C206.785 86.8252 206.508 87.2617 206.191 87.6982C205.875 88.1347 205.519 88.4919 205.083 88.8093C204.648 89.1268 204.173 89.3649 203.659 89.5633C203.144 89.7617 202.511 89.8411 201.878 89.8411C201.087 89.8411 200.335 89.6823 199.623 89.3649C198.911 89.0474 198.277 88.6109 197.763 88.0554C197.249 87.4998 196.813 86.8252 196.497 86.0315C196.18 85.2379 196.022 84.4046 196.062 83.4522C196.062 82.4998 196.22 81.6665 196.497 80.8728C196.813 80.0792 197.209 79.4046 197.724 78.849C198.238 78.2935 198.831 77.8569 199.544 77.5395C200.256 77.222 200.968 77.0633 201.72 77.0633C202.472 77.0633 203.184 77.222 203.857 77.4998C204.529 77.8173 205.123 78.2141 205.598 78.7696C206.112 79.3252 206.508 79.9601 206.785 80.7538C207.101 81.5077 207.22 82.3808 207.22 83.3331C207.22 83.5315 207.22 83.6903 207.18 83.8093C207.18 83.9284 207.141 84.0474 207.141 84.1268C207.141 84.2458 207.101 84.3252 207.101 84.4442H198.238C198.277 84.8807 198.396 85.3173 198.594 85.7538C198.792 86.1903 199.069 86.5474 199.425 86.8649C199.742 87.1823 200.137 87.4204 200.533 87.6188C200.968 87.8173 201.403 87.9363 201.839 87.9363C202.234 87.9363 202.59 87.8966 202.867 87.7776C203.184 87.6585 203.461 87.5395 203.698 87.3807C203.936 87.222 204.173 87.0633 204.331 86.9046C204.49 86.7458 204.648 86.5871 204.767 86.4284H206.983V86.3887ZM201.72 79.0474C201.285 79.0474 200.889 79.1268 200.493 79.3252C200.098 79.5236 199.781 79.7617 199.465 80.0792C199.148 80.3966 198.871 80.7934 198.673 81.23C198.475 81.6665 198.317 82.1427 198.238 82.6982H205.004C204.846 81.5871 204.49 80.7141 203.857 80.0395C203.263 79.3649 202.551 79.0474 201.72 79.0474Z" fill="black"/>
<path d="M224.907 77.2222V89.7222H209.515V77.2222H211.612V87.7777H216.202V77.2222H218.259V87.7777H222.849V77.2222H224.907Z" fill="black"/>
<path d="M238.123 86.3887C237.925 86.8252 237.648 87.2617 237.332 87.6982C237.015 88.1347 236.659 88.4919 236.224 88.8093C235.789 89.1268 235.314 89.3649 234.799 89.5633C234.285 89.7617 233.652 89.8411 233.019 89.8411C232.227 89.8411 231.476 89.6823 230.763 89.3649C230.051 89.0474 229.418 88.6109 228.904 88.0554C228.389 87.4998 227.954 86.8252 227.638 86.0315C227.321 85.2379 227.163 84.4046 227.202 83.4522C227.202 82.4998 227.361 81.6665 227.638 80.8728C227.954 80.0792 228.35 79.4046 228.864 78.849C229.379 78.2935 229.972 77.8569 230.684 77.5395C231.397 77.222 232.109 77.0633 232.861 77.0633C233.612 77.0633 234.325 77.222 234.997 77.4998C235.67 77.8173 236.263 78.2141 236.738 78.7696C237.253 79.3252 237.648 79.9601 237.925 80.7538C238.242 81.5077 238.361 82.3808 238.361 83.3331C238.361 83.5315 238.361 83.6903 238.321 83.8093C238.321 83.9284 238.281 84.0474 238.281 84.1268C238.281 84.2458 238.242 84.3252 238.242 84.4442H229.379C229.418 84.8807 229.537 85.3173 229.735 85.7538C229.932 86.1903 230.209 86.5474 230.566 86.8649C230.882 87.1823 231.278 87.4204 231.674 87.6188C232.109 87.8173 232.544 87.9363 232.979 87.9363C233.375 87.9363 233.731 87.8966 234.008 87.7776C234.325 87.6585 234.602 87.5395 234.839 87.3807C235.076 87.222 235.314 87.0633 235.472 86.9046C235.63 86.7458 235.789 86.5871 235.907 86.4284H238.123V86.3887ZM232.861 79.0474C232.425 79.0474 232.03 79.1268 231.634 79.3252C231.238 79.5236 230.922 79.7617 230.605 80.0792C230.289 80.3966 230.012 80.7934 229.814 81.23C229.616 81.6665 229.458 82.1427 229.379 82.6982H236.145C235.987 81.5871 235.63 80.7141 234.997 80.0395C234.404 79.3649 233.692 79.0474 232.861 79.0474Z" fill="black"/>
<path d="M251.181 77.2222V89.7222H249.123V84.3253H242.752V89.7222H240.655V77.2222H242.752V82.3809H249.123V77.2222H251.181Z" fill="black"/>
<path d="M264.713 77.2222V89.7222H262.655V80.4365L256.285 89.7222H254.188V77.2222H256.285V86.5079L262.655 77.2222H264.713Z" fill="black"/>
<path d="M271.954 85.2777L269.184 89.7222H266.85L269.738 84.9999C269.263 84.8412 268.828 84.6031 268.511 84.2857C268.195 84.0079 267.918 83.6111 267.641 83.1349C267.364 82.6587 267.245 82.0238 267.245 81.2301C267.245 80.0396 267.641 79.0873 268.393 78.3333C269.145 77.5793 270.213 77.2222 271.558 77.2222H276.821V89.7222H274.724V85.2777H271.954ZM271.519 79.1666C270.886 79.1666 270.371 79.365 269.936 79.8015C269.501 80.1984 269.303 80.7142 269.303 81.2698C269.303 81.8253 269.501 82.3015 269.936 82.738C270.371 83.1746 270.886 83.373 271.519 83.373H274.684V79.2063H271.519V79.1666Z" fill="black"/>
<defs>
<linearGradient id="paint0_linear_548:246" x1="45.5193" y1="96.8935" x2="158.996" y2="31.8109" gradientUnits="userSpaceOnUse">
<stop offset="1" stop-color="#004BC8"/>
<stop offset="1" stop-color="#00347F"/>
</linearGradient>
<linearGradient id="paint1_linear_548:246" x1="115.898" y1="3.08576" x2="2.42165" y2="68.1684" gradientUnits="userSpaceOnUse">
<stop offset="1" stop-color="#004BC8"/>
<stop offset="1" stop-color="#00347F"/>
</linearGradient>
</defs>
</svg>
