<svg width="40" height="40" viewBox="0 0 40 40" fill="none" xmlns="http://www.w3.org/2000/svg">
<path d="M34.1422 5.85789C30.3647 2.08039 25.3422 0 20 0C14.6578 0 9.63539 2.08039 5.85789 5.85789C2.08039 9.63539 0 14.6578 0 20C0 25.3422 2.08039 30.3646 5.85789 34.1421C9.63539 37.9196 14.6578 40 20 40C20.9378 40 21.8805 39.9348 22.802 39.8064C23.1225 39.7617 23.3461 39.4657 23.3014 39.1452C23.2568 38.8246 22.9602 38.6012 22.6402 38.6457C21.7722 38.7667 20.8838 38.8281 20 38.8281C14.9708 38.8281 10.2427 36.8697 6.68648 33.3135C3.13031 29.7573 1.17188 25.0292 1.17188 20C1.17188 14.9708 3.13031 10.2427 6.68648 6.68648C10.2427 3.13031 14.9708 1.17188 20 1.17188C25.0292 1.17188 29.7573 3.13031 33.3134 6.68648C36.8697 10.2427 38.8281 14.9709 38.8281 20C38.8281 25.0291 36.8697 29.7573 33.3134 33.3135C31.0563 35.5706 28.2626 37.2241 25.2342 38.0953C24.9233 38.1848 24.7437 38.5094 24.833 38.8204C24.9226 39.1314 25.2474 39.3109 25.5581 39.2215C28.7767 38.2956 31.7449 36.5393 34.1421 34.1422C37.9196 30.3646 40 25.3422 40 20C40 14.6578 37.9196 9.63539 34.1422 5.85789Z"  />
<path d="M3.11555 18.3548C2.79352 18.3355 2.51461 18.5805 2.49461 18.9036C2.47227 19.2664 2.46094 19.6353 2.46094 20C2.46094 24.6848 4.28531 29.0893 7.59797 32.402C10.9107 35.7147 15.3152 37.5391 20 37.5391C24.6848 37.5391 29.0893 35.7147 32.402 32.402C35.7146 29.0893 37.5391 24.6848 37.5391 20C37.5391 15.3152 35.7146 10.9107 32.402 7.59797C29.0893 4.28531 24.6848 2.46094 20 2.46094C16.0049 2.46094 12.0959 3.84 8.99289 6.34414C5.93578 8.81125 3.77266 12.267 2.90195 16.0747C2.82984 16.3902 3.02711 16.7044 3.34258 16.7765C3.65797 16.8487 3.97227 16.6513 4.04437 16.3359C5.75469 8.85648 12.3159 3.63281 20 3.63281C29.0249 3.63281 36.3672 10.9751 36.3672 20C36.3672 29.0249 29.0249 36.3672 20 36.3672C10.9751 36.3672 3.63281 29.0249 3.63281 20C3.63281 19.6592 3.64344 19.3147 3.6643 18.9758C3.68422 18.6527 3.43859 18.3748 3.11555 18.3548Z"  />
<path d="M7.38358 15.8049C7.38132 15.8049 7.37905 15.8049 7.37686 15.8049C6.70905 15.8068 6.05608 16.1141 5.62999 16.627C4.93929 17.4594 4.68444 18.4166 4.89296 19.3949L5.36952 21.6361C5.66413 23.0235 6.56663 24.1709 7.84569 24.784C8.0985 24.9052 8.3585 25.0006 8.62249 25.0727C8.86194 25.609 9.13991 26.1288 9.4535 26.627C9.206 26.7545 8.98264 26.937 8.79538 27.1696C8.37639 27.69 8.20413 28.3909 8.3346 29.045C8.54686 30.1051 9.13038 30.9056 10.022 31.3599L12.0642 32.4005C12.7154 32.7323 13.4184 32.8986 14.1225 32.8986C14.7847 32.8986 15.4478 32.7514 16.0689 32.4566C16.3223 32.3363 16.5602 32.1943 16.7825 32.0345C17.3493 32.1856 17.9281 32.2964 18.5128 32.3662C18.4559 32.639 18.4572 32.9277 18.5202 33.2199C18.661 33.8731 19.0974 34.4481 19.6877 34.7581C20.2179 35.0364 20.7577 35.176 21.2894 35.1759C21.7179 35.1759 22.141 35.0853 22.5491 34.9035L24.642 33.9715C25.938 33.3947 26.8727 32.2731 27.2062 30.8942C27.2724 30.6208 27.3119 30.3455 27.3273 30.0713C27.8015 29.7256 28.2515 29.3463 28.6731 28.9372C28.8494 29.1535 29.0748 29.3346 29.3419 29.4698C29.6622 29.6318 30.0184 29.7134 30.3746 29.7134C30.6816 29.7134 30.9885 29.6527 31.2719 29.5307C32.2644 29.104 32.9264 28.3668 33.1861 27.3987L33.6124 25.8073C33.6962 25.4947 33.5106 25.1734 33.198 25.0896C32.8854 25.0059 32.5642 25.1914 32.4805 25.504L32.0541 27.0952C31.8861 27.7216 31.4788 28.1661 30.8087 28.4542C30.5162 28.5802 30.1569 28.5687 29.8711 28.4241C29.7086 28.3419 29.5008 28.1831 29.4338 27.8934C29.1751 26.7793 28.4252 25.4076 27.4384 24.2244C28.064 23.1261 28.4373 21.9054 28.5317 20.6439L29.4094 20.647C30.9186 20.6525 32.2144 21.6317 32.6337 23.0838C32.7078 23.3404 32.9419 23.5073 33.1963 23.5073C33.2501 23.5073 33.3049 23.4998 33.3592 23.4841C33.6701 23.3944 33.8493 23.0695 33.7595 22.7586C33.5154 21.9131 33.0502 21.1869 32.4369 20.6338C32.4474 20.4226 32.4548 20.2107 32.4548 20.0002C32.4548 19.6281 32.4376 19.2552 32.4048 18.8845C32.6833 18.8834 32.9655 18.8219 33.238 18.6996C33.8474 18.4263 34.319 17.8801 34.4996 17.2389C34.793 16.1989 34.6369 15.2204 34.0479 14.4087L32.7004 12.5549C31.8669 11.4076 30.5755 10.7268 29.1575 10.6872C28.8759 10.6794 28.5982 10.6981 28.3265 10.74C27.7271 10.2006 27.079 9.72009 26.3894 9.3072C26.5519 9.08118 26.6678 8.8172 26.729 8.52501C26.8656 7.87149 26.7006 7.16915 26.2879 6.64673C25.6695 5.8622 24.8611 5.41595 23.9501 5.35634C23.6294 5.33446 23.3483 5.57985 23.3271 5.90274C23.3059 6.22563 23.5506 6.50454 23.8736 6.52571C24.4519 6.56352 24.9547 6.84837 25.3679 7.37266C25.5652 7.62251 25.6472 7.9722 25.5818 8.28516C25.5512 8.43126 25.4587 8.69829 25.1826 8.84556C24.174 9.38329 23.0437 10.4617 22.1564 11.7202C21.4548 11.5373 20.7315 11.4434 19.9996 11.4434C19.4654 11.4434 18.9338 11.4935 18.4124 11.5917L18.1887 10.7451C17.9308 9.76845 18.1213 8.73868 18.7112 7.92001C19.3022 7.0997 20.2165 6.59243 21.2195 6.52829C21.5425 6.50759 21.7875 6.22899 21.7668 5.9061C21.7462 5.58321 21.4696 5.33837 21.1446 5.35876C19.7905 5.44548 18.557 6.1293 17.7604 7.23501C17.6262 7.42126 17.5087 7.61618 17.4055 7.81688C16.8298 7.93899 16.2629 8.10227 15.7104 8.30485C15.637 8.03665 15.5049 7.78063 15.3166 7.54946C14.8948 7.03181 14.2451 6.71782 13.5783 6.70954C12.4991 6.69766 11.5935 7.10118 10.9638 7.87899L9.52163 9.65954C8.62866 10.762 8.30507 12.1858 8.63382 13.5658C8.69874 13.8383 8.78796 14.1003 8.89796 14.3507C8.63085 14.8748 8.40108 15.4177 8.21108 15.9739C7.95858 15.8633 7.67913 15.8049 7.38358 15.8049ZM6.51577 21.3925L6.03913 19.1508C5.90429 18.5181 6.06546 17.9373 6.53163 17.3755C6.73522 17.1304 7.06046 16.9776 7.38038 16.9766C7.56116 16.9777 7.82007 17.0233 8.01132 17.2507C8.74686 18.1258 10.0366 19.0072 11.452 19.6134C11.4462 19.7425 11.443 19.8717 11.443 20.0002C11.443 21.1497 11.6664 22.2573 12.1064 23.3012L11.3231 23.6967C10.384 24.1709 9.30108 24.182 8.35233 23.7272C7.40366 23.2725 6.73428 22.4216 6.51577 21.3925ZM14.6474 20.392C14.6845 20.9038 14.7923 21.3961 14.9633 21.8584L13.1551 22.7715C12.8013 21.9051 12.6199 20.9881 12.6153 20.0376C13.3058 20.2456 13.9982 20.3736 14.6474 20.392ZM16.3294 16.0885C15.9644 16.4313 15.6469 16.8238 15.3887 17.2561L13.5401 16.4251C13.9949 15.6059 14.6001 14.881 15.326 14.2872C15.5991 14.9544 15.9353 15.5727 16.3294 16.0885ZM20.0001 15.8041C22.3141 15.8041 24.1966 17.6867 24.1966 20.0007C24.1966 22.3147 22.3141 24.1973 20.0001 24.1973C17.6861 24.1973 15.8035 22.3147 15.8035 20.0007C15.8035 17.6867 17.6861 15.8041 20.0001 15.8041ZM25.1243 14.6887C25.8012 15.3412 26.346 16.1125 26.7312 16.9642C26.016 17.0551 25.3316 17.2195 24.7312 17.4665C24.4925 17.0227 24.1927 16.6167 23.844 16.2585L25.1243 14.6887ZM19.1096 31.2484C18.6586 31.2131 18.2103 31.1509 17.768 31.0623C18.1458 30.5524 18.4175 29.9619 18.5567 29.3181L19.418 25.3371C19.6756 25.3586 19.9014 25.3837 20.3415 25.3572C20.6817 27.1868 20.0223 29.8171 19.1096 31.2484ZM10.6975 26.3873C10.4414 26.015 10.208 25.6274 9.99866 25.2278C10.633 25.2006 11.2631 25.0399 11.8513 24.7429L15.4891 22.9058C15.6568 23.1652 15.8455 23.4097 16.054 23.6359C14.8454 25.0533 12.3844 26.1968 10.6975 26.3873ZM16.9369 24.4057C17.3451 24.6904 17.7944 24.9195 18.2741 25.0829L17.8455 27.0641C16.9508 26.7911 16.1166 26.3493 15.3845 25.7606C15.9798 25.3551 16.5144 24.8981 16.9369 24.4057ZM21.4955 25.1556C21.9832 25.0138 22.4422 24.8049 22.8622 24.5391L24.1312 26.1178C23.3527 26.6454 22.4848 27.018 21.5708 27.2166C21.6307 26.4981 21.6122 25.7943 21.4955 25.1556ZM15.5662 31.398C14.6158 31.8491 13.5333 31.8341 12.5962 31.3563L10.5539 30.3157C9.97702 30.0218 9.62686 29.5309 9.48358 28.8153C9.42124 28.5028 9.50725 28.1538 9.70803 27.9045C9.80155 27.7883 10.0051 27.5926 10.3173 27.5869C11.4616 27.5659 12.9608 27.1173 14.3244 26.3972C15.272 27.24 16.3876 27.8597 17.5966 28.2135L17.4112 29.0702C17.1891 30.0984 16.5166 30.9468 15.5662 31.398ZM26.0671 30.6188C25.8197 31.6413 25.1266 32.4732 24.1652 32.901L22.0722 33.8331C21.4805 34.0967 20.8787 34.0599 20.2323 33.7207C19.9502 33.5726 19.733 33.2861 19.6656 32.9731C19.6342 32.8273 19.6102 32.546 19.8025 32.2995C20.5052 31.3975 21.0991 29.9522 21.3978 28.4415C22.6439 28.236 23.8272 27.7566 24.8677 27.0343L25.4188 27.7199C26.0782 28.5397 26.3144 29.5963 26.0671 30.6188ZM27.1912 28.6941C27.0325 28.0803 26.7445 27.4984 26.3321 26.9856L25.4312 25.8649C25.4303 25.8636 25.4295 25.8624 25.4285 25.8611C25.4274 25.8598 25.4262 25.8586 25.4251 25.8574L23.7791 23.8095C23.9976 23.5927 24.1966 23.3566 24.3755 23.1052C26.0125 23.9913 27.6428 26.16 28.1807 27.7703C27.8697 28.0977 27.5388 28.4062 27.1912 28.6941ZM26.5953 23.3199C26.0751 22.8219 25.5171 22.3941 24.948 22.0831C25.1401 21.6281 25.2701 21.141 25.33 20.6327L27.3556 20.6399C27.2749 21.5756 27.0173 22.4841 26.5953 23.3199ZM29.4134 19.4753L27.9743 19.4702C27.9745 19.4702 27.974 19.4702 27.9743 19.4702C27.973 19.4702 27.971 19.4702 27.9696 19.4702C27.9697 19.4702 27.9694 19.4702 27.9696 19.4702L25.3413 19.4609C25.3101 19.1496 25.2508 18.8466 25.1686 18.5531C26.8876 17.8402 29.5971 17.9381 31.1862 18.5329C31.2439 18.9775 31.2756 19.4282 31.2805 19.8786C30.7093 19.6205 30.0769 19.4777 29.4134 19.4753ZM31.7523 13.2441L33.0997 15.0976C33.4807 15.6227 33.5697 16.2191 33.3716 16.9212C33.2853 17.2277 33.0503 17.4996 32.7583 17.6306C32.6223 17.6917 32.3519 17.7735 32.0707 17.6366C31.0426 17.1369 29.5055 16.8566 27.9655 16.8785C27.5043 15.7038 26.7892 14.646 25.8674 13.7774L26.424 13.0949C27.0887 12.2799 28.0755 11.8297 29.1246 11.8588C30.1764 11.8882 31.1341 12.3931 31.7523 13.2441ZM25.3898 10.0866C25.959 10.3968 26.5006 10.7555 27.0088 11.159C26.4412 11.4417 25.9318 11.8442 25.5158 12.3542L24.6053 13.4706C24.6051 13.4709 24.6048 13.4712 24.6045 13.4714C24.6042 13.4717 24.604 13.4721 24.6037 13.4724L22.9401 15.5123C22.6062 15.2927 22.2468 15.1089 21.8667 14.9675C22.3008 13.1569 23.9739 11.0218 25.3898 10.0866ZM19.9997 12.6155C20.5066 12.6155 21.0086 12.668 21.4998 12.7698C21.1529 13.4019 20.8837 14.0524 20.7305 14.6833C20.4914 14.6506 20.2479 14.6323 20.0001 14.6323C19.7387 14.6323 19.482 14.652 19.2305 14.6883L18.7129 12.7288C19.136 12.6541 19.5667 12.6155 19.9997 12.6155ZM17.0558 11.0445L18.0962 14.9823C17.8063 15.0926 17.5285 15.2271 17.2651 15.3838C16.1298 13.9067 15.5226 11.2603 15.6873 9.57102C16.1049 9.39821 16.5331 9.25071 16.9686 9.12946C16.8624 9.7579 16.8881 10.4094 17.0558 11.0445ZM10.4323 10.3973L11.8746 8.61665C12.2821 8.11337 12.8367 7.87407 13.5642 7.88149C13.8827 7.88548 14.2061 8.04196 14.4081 8.28993C14.5024 8.40563 14.6518 8.64571 14.5923 8.95337C14.3755 10.0764 14.5029 11.6349 14.9233 13.1174C13.9048 13.8692 13.0671 14.8324 12.4674 15.9428L11.6671 15.5831C10.7076 15.1518 10.0175 14.3176 9.77374 13.2944C9.53007 12.2709 9.77007 11.2149 10.4323 10.3973ZM11.1868 16.6519L12.493 17.2391C12.4947 17.2399 12.4962 17.2409 12.498 17.2416C12.4999 17.2425 12.5019 17.2431 12.5038 17.2439L14.9019 18.322C14.8062 18.6119 14.7341 18.9122 14.6889 19.2213C12.8261 19.1738 10.3891 17.9804 9.18069 16.789C9.30897 16.3563 9.46327 15.9309 9.64303 15.5162C10.0636 15.9926 10.5852 16.3816 11.1868 16.6519Z"  />
<path d="M20.0003 23.298C21.8186 23.298 23.298 21.8186 23.298 20.0003C23.298 18.1819 21.8186 16.7026 20.0003 16.7026C18.1819 16.7026 16.7026 18.182 16.7026 20.0003C16.7026 21.8186 18.1819 23.298 20.0003 23.298ZM20.0003 17.8744C21.1725 17.8744 22.1261 18.8281 22.1261 20.0002C22.1261 21.1724 21.1725 22.1261 20.0003 22.1261C18.8281 22.1261 17.8745 21.1724 17.8745 20.0002C17.8744 18.8281 18.8281 17.8744 20.0003 17.8744Z"  />
<path d="M20.0004 20.5867C20.3241 20.5867 20.5868 20.324 20.5868 20.0004C20.5868 19.6768 20.3241 19.4141 20.0004 19.4141C19.6768 19.4141 19.4141 19.6768 19.4141 20.0004C19.4141 20.324 19.6768 20.5867 20.0004 20.5867Z"  />
</svg>
