<svg width="40" height="40" viewBox="0 0 40 40" fill="none" xmlns="http://www.w3.org/2000/svg">
<g clip-path="url(#clip0_548_130)">
<path d="M13.6241 5.56086C12.8768 4.17583 12.2877 3.08246 13.5877 1.29414C13.8658 0.910779 13.7513 0.39413 13.335 0.139125C12.9222 -0.114238 12.3549 -0.0125178 12.075 0.37077C10.1914 2.95745 11.1913 4.81084 11.9949 6.29923C12.7459 7.69261 13.2895 8.69927 12.075 10.3709C11.795 10.7543 11.9095 11.271 12.3259 11.526C12.4804 11.621 12.6568 11.666 12.8314 11.666C13.1241 11.666 13.4113 11.536 13.5859 11.2943C15.3841 8.82427 14.4095 7.01424 13.6241 5.56086Z"  />
<path d="M20.8676 5.56086C20.1186 4.17583 19.5295 3.08246 20.8295 1.29414C21.1076 0.910779 20.9931 0.39413 20.5768 0.139125C20.164 -0.114238 19.5949 -0.0125178 19.3168 0.37077C17.4349 2.95917 18.4349 4.81249 19.2367 6.30087C19.9877 7.69425 20.5313 8.70091 19.3168 10.3709C19.0386 10.7543 19.1531 11.271 19.5695 11.526C19.724 11.621 19.8985 11.666 20.0731 11.666C20.3658 11.666 20.653 11.536 20.8295 11.2943C22.6277 8.82427 21.6531 7.01424 20.8676 5.56086Z"  />
<path d="M28.1097 5.56086C27.3606 4.17583 26.7715 3.08246 28.0715 1.29414C28.3497 0.910779 28.2351 0.39413 27.8188 0.139125C27.406 -0.114238 26.837 -0.0125178 26.5588 0.37077C24.677 2.95917 25.677 4.81249 26.4788 6.30087C27.2297 7.69425 27.7733 8.70091 26.5588 10.3709C26.2806 10.7543 26.3952 11.271 26.8115 11.526C26.966 11.621 27.1406 11.666 27.3151 11.666C27.6097 11.666 27.897 11.536 28.0715 11.2943C29.8697 8.82427 28.8951 7.01424 28.1097 5.56086Z"  />
<path d="M35.4546 13.3329H4.54543C2.03813 13.3329 0 15.203 0 17.4997V32.4999C0 34.7966 2.03821 36.6666 4.54543 36.6666H35.4546C37.9619 36.6666 40 34.7966 40 32.4999V17.4997C40 15.203 37.9618 13.3329 35.4546 13.3329ZM38.1818 32.5C38.1818 33.8784 36.9582 35 35.4546 35H4.54543C3.04176 35 1.81815 33.8784 1.81815 32.5V17.4997C1.81815 16.1214 3.04176 14.9997 4.54543 14.9997H35.4546C36.9582 14.9997 38.1818 16.1214 38.1818 17.4997V32.5Z"  />
<path d="M6.36355 16.6659C5.86173 16.6659 5.45443 17.0393 5.45443 17.4993V32.4996C5.45443 32.9596 5.86173 33.333 6.36355 33.333C6.86537 33.333 7.27267 32.9596 7.27267 32.4996V17.4993C7.27267 17.0393 6.86537 16.6659 6.36355 16.6659Z"  />
<path d="M11.818 16.6659C11.3162 16.6659 10.9089 17.0393 10.9089 17.4993V32.4996C10.9089 32.9596 11.3162 33.333 11.818 33.333C12.3198 33.333 12.7271 32.9596 12.7271 32.4996V17.4993C12.7271 17.0393 12.3198 16.6659 11.818 16.6659Z"  />
<path d="M17.2724 16.6659C16.7706 16.6659 16.3633 17.0393 16.3633 17.4993V32.4996C16.3633 32.9596 16.7706 33.333 17.2724 33.333C17.7742 33.333 18.1815 32.9596 18.1815 32.4996V17.4993C18.1815 17.0393 17.7742 16.6659 17.2724 16.6659Z"  />
<path d="M22.7268 16.6659C22.225 16.6659 21.8177 17.0393 21.8177 17.4993V32.4996C21.8177 32.9596 22.225 33.333 22.7268 33.333C23.2287 33.333 23.636 32.9596 23.636 32.4996V17.4993C23.636 17.0393 23.2287 16.6659 22.7268 16.6659Z"  />
<path d="M28.1813 16.6659C27.6795 16.6659 27.2722 17.0393 27.2722 17.4993V32.4996C27.2722 32.9596 27.6795 33.333 28.1813 33.333C28.6831 33.333 29.0904 32.9596 29.0904 32.4996V17.4993C29.0904 17.0393 28.6831 16.6659 28.1813 16.6659Z"  />
<path d="M33.6357 16.6659C33.1339 16.6659 32.7266 17.0393 32.7266 17.4993V32.4996C32.7266 32.9596 33.1339 33.333 33.6357 33.333C34.1375 33.333 34.5448 32.9596 34.5448 32.4996V17.4993C34.5448 17.0393 34.1375 16.6659 33.6357 16.6659Z"  />
<path d="M8.18205 34.9998C7.68023 34.9998 7.27293 35.3732 7.27293 35.8332V39.1666C7.27293 39.6266 7.68023 40 8.18205 40C8.68387 40 9.09117 39.6266 9.09117 39.1666V35.8332C9.09108 35.3731 8.68387 34.9998 8.18205 34.9998Z"  />
<path d="M31.8183 34.9998C31.3165 34.9998 30.9092 35.3732 30.9092 35.8332V39.1666C30.9092 39.6266 31.3165 40 31.8183 40C32.3201 40 32.7274 39.6266 32.7274 39.1666V35.8332C32.7274 35.3731 32.3201 34.9998 31.8183 34.9998Z"  />
</g>
<defs>
<clipPath id="clip0_548_130">
<rect width="40" height="40" fill="white"/>
</clipPath>
</defs>
</svg>
