<svg width="40" height="40" viewBox="0 0 40 40" fill="none" xmlns="http://www.w3.org/2000/svg">
<g clip-path="url(#clip0_548_150)">
<path d="M37.0647 8.78906H30.5554C30.2311 8.78906 29.9683 9.05887 29.9683 9.39179C29.9683 9.72471 30.2311 9.99452 30.5554 9.99452H37.0647C38.0358 9.99452 38.826 10.8056 38.826 11.8026V33.9863C38.826 34.9833 38.0358 35.7944 37.0647 35.7944H30.5554C30.2311 35.7944 29.9683 36.0642 29.9683 36.3971C29.9683 36.73 30.2311 36.9998 30.5554 36.9998H37.0647C38.6833 36.9998 40.0001 35.648 40.0001 33.9863V11.8025C40.0001 10.1409 38.6833 8.78906 37.0647 8.78906Z"  />
<path d="M28.2067 35.7946H2.93538C1.96429 35.7946 1.17413 34.9835 1.17413 33.9865V11.8029C1.17413 10.8059 1.96429 9.99479 2.93538 9.99479H28.2067C28.531 9.99479 28.7938 9.72498 28.7938 9.39206C28.7938 9.05914 28.531 8.78933 28.2067 8.78933H11.4538L29.7502 4.18832C30.0651 4.10916 30.2579 3.78289 30.1807 3.45959C30.1036 3.13629 29.7851 2.93795 29.4709 3.01759L6.51895 8.78941H2.93538C1.31679 8.78941 0 10.1412 0 11.8029V33.9865C0 35.6482 1.31679 37 2.93538 37H28.2067C28.531 37 28.7938 36.7302 28.7938 36.3973C28.7938 36.0644 28.531 35.7946 28.2067 35.7946Z"  />
<path d="M10.3468 34.0669H36.627C36.9513 34.0669 37.2141 33.7971 37.2141 33.4642V12.3249C37.2141 11.992 36.9513 11.7222 36.627 11.7222H3.37226C3.04797 11.7222 2.78516 11.992 2.78516 12.3249V33.4642C2.78516 33.7971 3.04797 34.0669 3.37226 34.0669H7.99841C8.32271 34.0669 8.58552 33.7971 8.58552 33.4642C8.58552 33.1313 8.32271 32.8615 7.99841 32.8615H3.95937V12.9276H36.04V32.8616H10.3468C10.0225 32.8616 9.75965 33.1314 9.75965 33.4643C9.75965 33.7972 10.0225 34.0669 10.3468 34.0669Z"  />
<path d="M6.00244 22.8947C6.00244 23.2276 6.26525 23.4974 6.58955 23.4974H21.0148C21.3391 23.4974 21.6019 23.2276 21.6019 22.8947C21.6019 22.5618 21.3391 22.292 21.0148 22.292H6.58947C6.26525 22.292 6.00244 22.5618 6.00244 22.8947Z"  />
<path d="M6.43701 20.3566C6.43701 20.6895 6.69982 20.9593 7.02412 20.9593H20.5799C20.9042 20.9593 21.167 20.6895 21.167 20.3566C21.167 20.0237 20.9042 19.7539 20.5799 19.7539H7.02412C6.69982 19.7539 6.43701 20.0237 6.43701 20.3566Z"  />
<path d="M7.96387 17.819C7.96387 18.152 8.22668 18.4218 8.55097 18.4218H19.0543C19.3786 18.4218 19.6414 18.152 19.6414 17.819C19.6414 17.4861 19.3786 17.2163 19.0543 17.2163H8.55097C8.22668 17.2163 7.96387 17.4861 7.96387 17.819Z"  />
<path d="M7.02412 26.0346H20.5799C20.9042 26.0346 21.167 25.7648 21.167 25.4318C21.167 25.0989 20.9042 24.8291 20.5799 24.8291H7.02412C6.69982 24.8291 6.43701 25.0989 6.43701 25.4318C6.43701 25.7648 6.69982 26.0346 7.02412 26.0346Z"  />
<path d="M8.55097 28.5722H19.054C19.3783 28.5722 19.6411 28.3024 19.6411 27.9694C19.6411 27.6365 19.3783 27.3667 19.054 27.3667H8.55097C8.22668 27.3667 7.96387 27.6365 7.96387 27.9694C7.96387 28.3024 8.22676 28.5722 8.55097 28.5722Z"  />
<path d="M15.9568 16.0927C16.2811 16.0927 16.5439 15.8229 16.5439 15.4899C16.5439 15.157 16.2811 14.8872 15.9568 14.8872H11.6477C11.3234 14.8872 11.0605 15.157 11.0605 15.4899C11.0605 15.8229 11.3234 16.0927 11.6477 16.0927H15.9568Z"  />
<path d="M11.6477 29.6963C11.3234 29.6963 11.0605 29.9661 11.0605 30.299C11.0605 30.6319 11.3234 30.9017 11.6477 30.9017H15.9568C16.2811 30.9017 16.5439 30.6319 16.5439 30.299C16.5439 29.9661 16.2811 29.6963 15.9568 29.6963H11.6477Z"  />
<path d="M32.2658 14.8872H25.346C24.501 14.8872 23.8135 15.5929 23.8135 16.4604V19.3862C23.8135 20.2537 24.5009 20.9594 25.346 20.9594H32.2658C33.1108 20.9594 33.7983 20.2537 33.7983 19.3862V16.4604C33.7982 15.593 33.1108 14.8872 32.2658 14.8872ZM32.6241 19.3863C32.6241 19.589 32.4633 19.7541 32.2658 19.7541H25.346C25.1485 19.7541 24.9877 19.589 24.9877 19.3863V16.4605C24.9877 16.2577 25.1485 16.0927 25.346 16.0927H32.2658C32.4633 16.0927 32.6241 16.2577 32.6241 16.4605V19.3863Z"  />
<path d="M24.4006 24.8168H26.0096C26.3339 24.8168 26.5967 24.547 26.5967 24.2141C26.5967 23.8811 26.3339 23.6113 26.0096 23.6113H24.4006C24.0763 23.6113 23.8135 23.8811 23.8135 24.2141C23.8135 24.5471 24.0763 24.8168 24.4006 24.8168Z"  />
<path d="M30.1977 24.2141C30.1977 23.8811 29.9348 23.6113 29.6106 23.6113H28.0017C27.6774 23.6113 27.4146 23.8811 27.4146 24.2141C27.4146 24.547 27.6774 24.8168 28.0017 24.8168H29.6106C29.9348 24.8167 30.1977 24.547 30.1977 24.2141Z"  />
<path d="M33.2117 24.8168C33.536 24.8168 33.7988 24.547 33.7988 24.2141C33.7988 23.8811 33.536 23.6113 33.2117 23.6113H31.6027C31.2784 23.6113 31.0156 23.8811 31.0156 24.2141C31.0156 24.547 31.2784 24.8168 31.6027 24.8168H33.2117Z"  />
<path d="M26.0273 30.9014C27.248 30.9014 28.2411 29.8819 28.2411 28.6287C28.2411 27.3755 27.2481 26.356 26.0273 26.356C24.8066 26.356 23.8135 27.3754 23.8135 28.6287C23.8135 29.8819 24.8065 30.9014 26.0273 30.9014ZM26.0273 27.5614C26.6006 27.5614 27.0669 28.0402 27.0669 28.6287C27.0669 29.2172 26.6005 29.6959 26.0273 29.6959C25.454 29.6959 24.9877 29.2171 24.9877 28.6287C24.9876 28.0402 25.454 27.5614 26.0273 27.5614Z"  />
<path d="M31.603 30.9014C32.8237 30.9014 33.8168 29.8819 33.8168 28.6287C33.8168 27.3755 32.8238 26.356 31.603 26.356C30.3823 26.356 29.3892 27.3754 29.3892 28.6287C29.3892 29.8819 30.3823 30.9014 31.603 30.9014ZM31.603 27.5614C32.1763 27.5614 32.6426 28.0402 32.6426 28.6287C32.6426 29.2172 32.1762 29.6959 31.603 29.6959C31.0297 29.6959 30.5634 29.2171 30.5634 28.6287C30.5634 28.0402 31.0297 27.5614 31.603 27.5614Z"  />
</g>
<defs>
<clipPath id="clip0_548_150">
<rect width="40" height="40" fill="white"/>
</clipPath>
</defs>
</svg>
