<svg width="40" height="40" viewBox="0 0 40 40" fill="none" xmlns="http://www.w3.org/2000/svg">
<path d="M0.90912 25.4546C0.407301 25.4546 0 25.0473 0 24.5455V15.4545C0 14.9527 0.407301 14.5454 0.90912 14.5454C1.41094 14.5454 1.81824 14.9527 1.81824 15.4545V24.5455C1.81815 25.0473 1.41094 25.4546 0.90912 25.4546Z"/>
<path d="M6.36371 32.7271C5.86189 32.7271 5.45459 32.3197 5.45459 31.8179V8.18158C5.45459 7.67976 5.86189 7.27246 6.36371 7.27246C6.86553 7.27246 7.27274 7.67976 7.27274 8.18158V31.8179C7.27274 32.3197 6.86553 32.7271 6.36371 32.7271Z"/>
<path d="M11.8183 40C11.3165 40 10.9092 39.5927 10.9092 39.0909V0.909035C10.9092 0.407301 11.3165 0 11.8183 0C12.3201 0 12.7274 0.407301 12.7274 0.90912V39.091C12.7273 39.5928 12.3201 40 11.8183 40Z"/>
<path d="M17.2729 38.182C16.7711 38.182 16.3638 37.7747 16.3638 37.2729V2.72748C16.3638 2.22566 16.7711 1.81836 17.2729 1.81836C17.7747 1.81836 18.1819 2.22566 18.1819 2.72748V37.2729C18.1819 37.7747 17.7747 38.182 17.2729 38.182Z"/>
<path d="M22.7275 30.9091C22.2257 30.9091 21.8184 30.5018 21.8184 30V9.99994C21.8184 9.49812 22.2257 9.09082 22.7275 9.09082C23.2293 9.09082 23.6366 9.49812 23.6366 9.99994V30C23.6365 30.5018 23.2293 30.9091 22.7275 30.9091Z"/>
<path d="M28.1816 38.182C27.6798 38.182 27.2725 37.7747 27.2725 37.2729V2.72748C27.2725 2.22566 27.6798 1.81836 28.1816 1.81836C28.6834 1.81836 29.0907 2.22566 29.0907 2.72748V37.2729C29.0906 37.7747 28.6834 38.182 28.1816 38.182Z"/>
<path d="M33.6367 30.9091C33.1348 30.9091 32.7275 30.5018 32.7275 30V9.99994C32.7275 9.49812 33.1348 9.09082 33.6367 9.09082C34.1385 9.09082 34.5458 9.49812 34.5458 9.99994V30C34.5457 30.5018 34.1385 30.9091 33.6367 30.9091Z"/>
<path d="M39.0908 25.4546C38.5889 25.4546 38.1816 25.0473 38.1816 24.5455V15.4545C38.1816 14.9527 38.5889 14.5454 39.0908 14.5454C39.5926 14.5454 39.9999 14.9527 39.9999 15.4545V24.5455C39.9998 25.0473 39.5926 25.4546 39.0908 25.4546Z"/>
</svg>
