<svg width="24" height="24" viewBox="0 0 24 24" fill="none" xmlns="http://www.w3.org/2000/svg">
<g clip-path="url(#clip0_634_746)">
<rect x="4.28516" y="24" width="9.42857" height="1.71429" transform="rotate(-90 4.28516 24)" fill="#222326"/>
<rect x="4.28516" y="11.1426" width="11.1429" height="1.71429" transform="rotate(-90 4.28516 11.1426)" fill="#222326"/>
<rect x="11.1426" y="24" width="18" height="1.71429" transform="rotate(-90 11.1426 24)" fill="#222326"/>
<rect x="11.1426" y="2.57129" width="2.57143" height="1.71428" transform="rotate(-90 11.1426 2.57129)" fill="#222326"/>
<rect x="18" y="13.7139" width="13.7143" height="1.71429" transform="rotate(-90 18 13.7139)" fill="#222326"/>
<rect x="18" y="24" width="6.85714" height="1.71429" transform="rotate(-90 18 24)" fill="#222326"/>
<path fill-rule="evenodd" clip-rule="evenodd" d="M5.14272 15.429C6.56288 15.429 7.71415 14.2777 7.71415 12.8576C7.71415 11.4374 6.56288 10.2861 5.14272 10.2861C3.72256 10.2861 2.57129 11.4374 2.57129 12.8576C2.57129 14.2777 3.72256 15.429 5.14272 15.429ZM5.14276 14.3145C5.94752 14.3145 6.5999 13.6622 6.5999 12.8574C6.5999 12.0526 5.94752 11.4003 5.14276 11.4003C4.338 11.4003 3.68562 12.0526 3.68562 12.8574C3.68562 13.6622 4.338 14.3145 5.14276 14.3145Z" fill="#222326"/>
<path fill-rule="evenodd" clip-rule="evenodd" d="M18.8566 18.0003C20.2767 18.0003 21.428 16.849 21.428 15.4289C21.428 14.0087 20.2767 12.8574 18.8566 12.8574C17.4364 12.8574 16.2852 14.0087 16.2852 15.4289C16.2852 16.849 17.4364 18.0003 18.8566 18.0003ZM18.8566 16.8858C19.6614 16.8858 20.3138 16.2334 20.3138 15.4287C20.3138 14.6239 19.6614 13.9715 18.8566 13.9715C18.0519 13.9715 17.3995 14.6239 17.3995 15.4287C17.3995 16.2334 18.0519 16.8858 18.8566 16.8858Z" fill="#222326"/>
<path fill-rule="evenodd" clip-rule="evenodd" d="M12.0001 6.85673C13.4203 6.85673 14.5716 5.70546 14.5716 4.2853C14.5716 2.86514 13.4203 1.71387 12.0001 1.71387C10.58 1.71387 9.42871 2.86514 9.42871 4.2853C9.42871 5.70546 10.58 6.85673 12.0001 6.85673ZM12.0002 5.74227C12.8049 5.74227 13.4573 5.08989 13.4573 4.28513C13.4573 3.48037 12.8049 2.82799 12.0002 2.82799C11.1954 2.82799 10.543 3.48037 10.543 4.28513C10.543 5.08989 11.1954 5.74227 12.0002 5.74227Z" fill="#222326"/>
</g>
<defs>
<clipPath id="clip0_634_746">
<rect width="24" height="24" fill="white" transform="translate(0 24) rotate(-90)"/>
</clipPath>
</defs>
</svg>
