<svg width="18" height="18" viewBox="0 0 18 18" fill="none" xmlns="http://www.w3.org/2000/svg">
<path d="M17.2923 16.2907L12.458 11.4564C13.3944 10.2997 13.9582 8.82992 13.9582 7.22911C13.9582 3.5189 10.9393 0.5 7.22908 0.5C3.51886 0.5 0.5 3.51886 0.5 7.22908C0.5 10.9393 3.5189 13.9582 7.22911 13.9582C8.82992 13.9582 10.2997 13.3944 11.4564 12.458L16.2907 17.2923C16.4288 17.4304 16.6102 17.4998 16.7915 17.4998C16.9729 17.4998 17.1542 17.4304 17.2923 17.2923C17.5693 17.0153 17.5693 16.5677 17.2923 16.2907ZM7.22911 12.5415C4.29946 12.5415 1.91666 10.1587 1.91666 7.22908C1.91666 4.29943 4.29946 1.91663 7.22911 1.91663C10.1588 1.91663 12.5416 4.29943 12.5416 7.22908C12.5416 10.1587 10.1587 12.5415 7.22911 12.5415Z" fill="currentcolor"/>
</svg>
