<svg width="30" height="40" viewBox="0 0 30 40" fill="none" xmlns="http://www.w3.org/2000/svg">
<g clip-path="url(#clip0_548_134)">
<path d="M29.4231 23.8083C29.417 23.7894 29.4098 23.7707 29.4015 23.7523L27.9268 20.419C27.8789 20.3107 27.8005 20.2157 27.6993 20.1434C27.5982 20.0711 27.4778 20.0241 27.3503 20.007C27.2228 19.9899 27.0925 20.0033 26.9725 20.046C26.8525 20.0886 26.747 20.1589 26.6664 20.25L25.1418 21.9733C25.0272 22.1028 24.8837 22.209 24.7207 22.2849C24.5577 22.3608 24.3788 22.4048 24.1956 22.414C24.0125 22.4232 23.8293 22.3973 23.658 22.3381C23.4867 22.2789 23.3311 22.1877 23.2015 22.0705C22.9705 21.8598 22.8353 21.5784 22.8227 21.2819C22.8101 20.9855 22.9211 20.6955 23.1335 20.4695C24.1433 19.4093 24.7036 18.0591 24.7143 16.66C24.725 15.2609 24.1856 13.9038 23.1922 12.8311L22.6473 12.2394C22.5601 12.1448 22.4457 12.0739 22.3167 12.0345C22.1877 11.9952 22.0491 11.9889 21.9164 12.0163C21.7837 12.0438 21.6619 12.1039 21.5647 12.1901C21.4675 12.2763 21.3985 12.3851 21.3655 12.5046L21.1647 13.2309C21.0828 13.5287 20.9221 13.804 20.6963 14.0332C20.4706 14.2623 20.1866 14.4383 19.8688 14.5461V13.5341C19.8728 11.5296 19.1799 9.57479 17.8881 7.94582C16.7755 6.54277 16.1787 4.85901 16.1821 3.13257V0.666655C16.1821 0.545986 16.1459 0.42758 16.0773 0.324065C16.0087 0.220549 15.9103 0.135806 15.7927 0.0788715C15.675 0.0219371 15.5424 -0.00505301 15.4091 0.000779299C15.2758 0.0066116 15.1468 0.0450476 15.0357 0.111989L11.8836 2.01199C10.762 2.68522 9.94065 3.69622 9.56564 4.86531C9.19062 6.0344 9.2862 7.28585 9.8354 8.39723C10.1576 9.04648 10.2718 9.76445 10.165 10.4695C10.0582 11.1745 9.73472 11.8383 9.23133 12.3853L3.26222 18.9186C1.54135 20.8023 0.448539 23.0896 0.111349 25.5137C-0.225842 27.9377 0.206497 30.3985 1.3579 32.6087C2.50931 34.819 4.33228 36.6875 6.61402 37.9963C8.89577 39.305 11.5422 39.9999 14.2443 40H15.7489C17.6202 40.0046 19.474 39.6735 21.2028 39.026C22.9317 38.3785 24.5014 37.4274 25.821 36.2277L26.0069 36.0596C27.7483 34.4876 28.9855 32.5181 29.5871 30.3607C30.1887 28.2033 30.132 25.9389 29.4231 23.8083ZM24.9642 35.1166L24.7783 35.2848C23.5953 36.3603 22.1881 37.2129 20.6382 37.7934C19.0883 38.3739 17.4265 38.6707 15.7489 38.6666H14.2443C11.8219 38.6666 9.44942 38.0436 7.40386 36.8703C5.35831 35.6971 3.72405 34.0219 2.69186 32.0405C1.65966 30.059 1.27211 27.853 1.57444 25.6798C1.87676 23.5067 2.8565 21.4562 4.39929 19.7676L10.3684 13.2342C11.0474 12.4965 11.4837 11.6012 11.6277 10.6504C11.7718 9.69947 11.6177 8.73112 11.1832 7.85548C10.776 7.03143 10.7051 6.10355 10.9832 5.23673C11.2612 4.3699 11.8702 3.62028 12.7018 3.12107L14.7074 1.91232V3.13257C14.7035 5.13699 15.3963 7.09184 16.6881 8.72081C17.8008 10.1239 18.3976 11.8076 18.3941 13.5341V15.3333C18.3941 15.5101 18.4718 15.6797 18.6101 15.8047C18.7484 15.9297 18.9359 16 19.1315 16C19.8213 16.0007 20.4965 15.8204 21.0753 15.4811C21.654 15.1418 22.1115 14.6579 22.3921 14.0881C23.0034 14.9185 23.2973 15.9069 23.2291 16.9025C23.1609 17.898 22.7342 18.846 22.0143 19.6018C21.7742 19.855 21.5923 20.1489 21.4792 20.4664C21.3661 20.7838 21.324 21.1184 21.3554 21.4507C21.3868 21.783 21.4911 22.1063 21.6621 22.4018C21.8332 22.6973 22.0676 22.959 22.3517 23.1717C22.6358 23.3845 22.9639 23.5439 23.3168 23.6408C23.6698 23.7377 24.0405 23.77 24.4075 23.736C24.7744 23.702 25.1302 23.6023 25.454 23.4426C25.7779 23.283 26.0633 23.0666 26.2938 22.8062L27.028 21.9765L28.0203 24.2196C28.6452 26.1164 28.691 28.1305 28.153 30.0489C27.6149 31.9672 26.5131 33.7183 24.9642 35.1166Z"/>
<path d="M23.3876 26.0214C23.2633 25.9922 23.1328 25.9929 23.0089 26.0234C22.885 26.0539 22.7721 26.1132 22.6813 26.1953L20.5362 28.1349C20.274 28.3735 19.9198 28.5113 19.5479 28.5195C19.1759 28.5277 18.8148 28.4056 18.54 28.1787C18.2652 27.9519 18.098 27.6378 18.0732 27.3022C18.0485 26.9665 18.1681 26.6351 18.4072 26.3773C19.2161 25.4997 19.7244 24.428 19.8701 23.2932C20.0158 22.1585 19.7925 21.0099 19.2275 19.9881L15.7512 13.7019C15.6795 13.5722 15.5629 13.4672 15.4192 13.4027C15.2755 13.3383 15.1125 13.318 14.9549 13.3449C14.7973 13.3718 14.6537 13.4444 14.5459 13.5518C14.438 13.6591 14.3718 13.7953 14.3573 13.9397L13.8228 19.2564C13.7665 19.8043 13.5889 20.3365 13.3007 20.8212C13.0126 21.3059 12.6196 21.7333 12.1452 22.078L9.10613 24.2761C8.21107 24.9204 7.48872 25.7394 6.99311 26.6717C6.4975 27.604 6.24147 28.6256 6.24416 29.6601V30.4167C6.24417 31.3222 6.44143 32.2188 6.82468 33.0553C7.20792 33.8918 7.76965 34.6519 8.47778 35.2921C9.18591 35.9323 10.0266 36.4402 10.9518 36.7867C11.877 37.1332 12.8686 37.3115 13.8701 37.3115C13.895 37.3115 13.92 37.3115 13.9452 37.3115L16.0759 37.2925C18.0829 37.279 20.002 36.5463 21.4124 35.2552L21.4196 35.2487C22.6579 34.1191 23.5414 32.7118 23.9794 31.1714C24.4174 29.631 24.394 28.0129 23.9117 26.4834C23.8763 26.3718 23.8094 26.2705 23.7175 26.1894C23.6256 26.1084 23.5119 26.0505 23.3876 26.0214ZM20.3748 34.307L20.3663 34.3147C19.2285 35.3564 17.6802 35.9475 16.0611 35.9584L13.9303 35.9774C13.1176 35.9846 12.3112 35.8461 11.558 35.57C10.8048 35.2938 10.1195 34.8853 9.54193 34.3683C8.96432 33.8512 8.50578 33.2358 8.19281 32.5575C7.87984 31.8792 7.71865 31.1516 7.71856 30.4167V29.6601C7.71639 28.8257 7.92292 28.0017 8.32268 27.2497C8.72245 26.4976 9.3051 25.8371 10.0271 25.3174L13.0661 23.1191C13.6954 22.662 14.2168 22.0951 14.5991 21.4523C14.9814 20.8094 15.217 20.1036 15.2917 19.3768L15.5916 16.3943L17.9088 20.5845C18.3456 21.3744 18.5183 22.2623 18.4056 23.1395C18.293 24.0168 17.9 24.8453 17.2747 25.5237C16.7941 26.0453 16.5543 26.7143 16.6053 27.3916C16.6564 28.0689 16.9943 28.7024 17.5487 29.1602C18.1031 29.618 18.8315 29.8649 19.5821 29.8495C20.3328 29.8341 21.048 29.5577 21.5789 29.0776L22.7549 28.0144C22.9095 29.1577 22.7757 30.3178 22.3635 31.4076C21.9513 32.4975 21.2714 33.4887 20.3748 34.307Z"/>
<path d="M2.17285 12.6666V13.9999C2.17285 14.1767 2.25054 14.3463 2.38881 14.4713C2.52709 14.5963 2.71463 14.6666 2.91019 14.6666C3.10574 14.6666 3.29329 14.5963 3.43156 14.4713C3.56984 14.3463 3.64753 14.1767 3.64753 13.9999V12.6666C3.64753 12.4897 3.56984 12.3202 3.43156 12.1952C3.29329 12.0701 3.10574 11.9999 2.91019 11.9999C2.71463 11.9999 2.52709 12.0701 2.38881 12.1952C2.25054 12.3202 2.17285 12.4897 2.17285 12.6666Z"/>
<path d="M5.1221 11.3332C5.31766 11.3332 5.5052 11.263 5.64348 11.138C5.78176 11.0129 5.85944 10.8434 5.85944 10.6666V9.33323C5.85944 9.15642 5.78176 8.98685 5.64348 8.86183C5.5052 8.7368 5.31766 8.66656 5.1221 8.66656C4.92655 8.66656 4.739 8.7368 4.60073 8.86183C4.46245 8.98685 4.38477 9.15642 4.38477 9.33323V10.6666C4.38477 10.8434 4.46245 11.0129 4.60073 11.138C4.739 11.263 4.92655 11.3332 5.1221 11.3332Z"/>
<path d="M2.17288 8.66685C2.36844 8.66685 2.55598 8.59661 2.69426 8.47159C2.83254 8.34657 2.91022 8.177 2.91022 8.00019V6.66685C2.91022 6.49004 2.83254 6.32047 2.69426 6.19545C2.55598 6.07043 2.36844 6.00019 2.17288 6.00019C1.97733 6.00019 1.78979 6.07043 1.65151 6.19545C1.51323 6.32047 1.43555 6.49004 1.43555 6.66685V8.00019C1.43555 8.177 1.51323 8.34657 1.65151 8.47159C1.78979 8.59661 1.97733 8.66685 2.17288 8.66685Z"/>
<path d="M27.9795 16.6665C28.1751 16.6665 28.3626 16.5962 28.5009 16.4712C28.6392 16.3462 28.7169 16.1766 28.7169 15.9998V14.6665C28.7169 14.4897 28.6392 14.3201 28.5009 14.1951C28.3626 14.07 28.1751 13.9998 27.9795 13.9998C27.784 13.9998 27.5964 14.07 27.4581 14.1951C27.3199 14.3201 27.2422 14.4897 27.2422 14.6665V15.9998C27.2422 16.1766 27.3199 16.3462 27.4581 16.4712C27.5964 16.5962 27.784 16.6665 27.9795 16.6665Z"/>
<path d="M25.7676 12.0002C25.9632 12.0002 26.1507 11.9299 26.289 11.8049C26.4273 11.6799 26.5049 11.5103 26.5049 11.3335V10.0002C26.5049 9.82337 26.4273 9.6538 26.289 9.52878C26.1507 9.40376 25.9632 9.33352 25.7676 9.33352C25.5721 9.33352 25.3845 9.40376 25.2462 9.52878C25.108 9.6538 25.0303 9.82337 25.0303 10.0002V11.3335C25.0303 11.5103 25.108 11.6799 25.2462 11.8049C25.3845 11.9299 25.5721 12.0002 25.7676 12.0002Z"/>
<path d="M28.7168 9.99999C28.9124 9.99999 29.0999 9.92976 29.2382 9.80473C29.3765 9.67971 29.4542 9.51014 29.4542 9.33333V7.33333C29.4542 7.15652 29.3765 6.98695 29.2382 6.86192C29.0999 6.7369 28.9124 6.66666 28.7168 6.66666C28.5213 6.66666 28.3337 6.7369 28.1955 6.86192C28.0572 6.98695 27.9795 7.15652 27.9795 7.33333V9.33333C27.9795 9.51014 28.0572 9.67971 28.1955 9.80473C28.3337 9.92976 28.5213 9.99999 28.7168 9.99999Z"/>
</g>
<defs>
<clipPath id="clip0_548_134">
<rect width="30" height="40" fill="white"/>
</clipPath>
</defs>
</svg>
