<svg width="40" height="40" viewBox="0 0 40 40" fill="none" xmlns="http://www.w3.org/2000/svg">
<path d="M39.6853 19.5233L36.6384 16.5609C36.3533 16.2837 35.9398 16.2106 35.5845 16.375C35.2295 16.5392 35.0001 16.9096 35.0001 17.3186V18.0143H33.7843V12.2842H33.9796C34.5181 12.2842 34.9562 11.822 34.9562 11.2539V9.60542C34.9562 9.03728 34.5181 8.57513 33.9796 8.57513H32.4171C32.0244 8.57513 31.6859 8.82158 31.531 9.17509L21.7578 5.80951V5.03029C21.7578 4.46215 21.3198 4 20.7812 4H19.2188C18.6802 4 18.2422 4.46215 18.2422 5.03029V5.8096L14.5838 7.06935C14.2762 7.17526 14.1082 7.52432 14.2086 7.84882C14.2893 8.10969 14.5188 8.27536 14.7655 8.27536C14.8258 8.27536 14.8871 8.26547 14.9474 8.2447L18.3207 7.08303C18.47 7.45072 18.8162 7.70903 19.2188 7.70903H19.4141V13.1503H19.2188C18.8343 13.1503 18.502 13.3864 18.3428 13.728L8.64977 10.4134L12.3731 9.13124C12.6808 9.02533 12.8488 8.67627 12.7484 8.35177C12.648 8.02727 12.3173 7.8499 12.0095 7.95589L8.46906 9.17509C8.31414 8.82158 7.9757 8.57513 7.58297 8.57513H6.02047C5.48195 8.57513 5.04391 9.03728 5.04391 9.60542V11.2539C5.04391 11.822 5.48195 12.2842 6.02047 12.2842H6.21578V17.9319H5V17.3186C5 16.9096 4.77055 16.5392 4.41555 16.375C4.06055 16.2108 3.6468 16.2837 3.36164 16.5609L0.314766 19.5233C0.114766 19.7177 0 19.9939 0 20.2808C0 20.5678 0.114688 20.844 0.314687 21.0386L3.36164 24.0009C3.54555 24.1798 3.78297 24.2736 4.02367 24.2736C4.15602 24.2736 4.28945 24.2451 4.41555 24.1869C4.77063 24.0227 5 23.6523 5 23.2433V22.5476H6.21578V27.835H6.02047C5.48195 27.835 5.04391 28.2971 5.04391 28.8653V30.5137C5.04391 31.0819 5.48195 31.544 6.02047 31.544H7.58297C7.9275 31.544 8.23023 31.3544 8.40414 31.0693L12.3183 32.4171C12.3787 32.4379 12.44 32.4478 12.5002 32.4478C12.7469 32.4478 12.9764 32.2821 13.0571 32.0213C13.1575 31.6967 12.9895 31.3477 12.6819 31.2418L8.64984 29.8533L12.8973 28.4008L19.4141 30.6216V32.6056H19.2188C18.8317 32.6056 18.4976 32.8449 18.3396 33.1902L15.3045 32.145C14.9964 32.0389 14.6661 32.2164 14.5657 32.5409C14.4653 32.8654 14.6333 33.2144 14.9409 33.3203L18.2422 34.4572V35.2843C18.2422 35.8524 18.6802 36.3146 19.2188 36.3146H20.7812C21.3198 36.3146 21.7578 35.8524 21.7578 35.2843V34.4572L31.5959 31.0693C31.7698 31.3544 32.0726 31.544 32.4171 31.544H33.9796C34.5181 31.544 34.9562 31.0819 34.9562 30.5137V28.8653C34.9562 28.2971 34.5181 27.835 33.9796 27.835H33.7843V22.63H35V23.2433C35 23.6523 35.2295 24.0227 35.5845 24.1869C35.7105 24.2452 35.8438 24.2736 35.9763 24.2736C36.217 24.2736 36.4545 24.1798 36.6384 24.0009L39.6853 21.0385C39.8854 20.844 40 20.5678 40 20.2808C40 19.9939 39.8852 19.7177 39.6853 19.5233ZM32.6123 9.81148H33.7842V11.0478H32.6123V9.81148ZM19.4141 5.23634H20.5859V6.47269H19.4141V5.23634ZM20.5859 7.70903H20.7812C21.1838 7.70903 21.53 7.45072 21.6793 7.08303L31.3503 10.4133L21.6573 13.7279C21.498 13.3864 21.1658 13.1502 20.7813 13.1502H20.586V7.70903H20.5859ZM18.3056 16.1911C18.445 16.5809 18.8012 16.8593 19.2188 16.8593H19.4141V18.956L14.798 17.3864L18.3056 16.1911ZM13.4836 18.2383L19.4141 20.2549V24.8727L13.4836 26.9007V18.2383ZM20.5859 26.1724L25.1997 27.7502L20.5859 29.3224V26.1724ZM20.5859 16.8593H20.7812C21.1988 16.8593 21.555 16.5809 21.6944 16.1911L25.2279 17.3952L20.5859 18.9585V16.8593ZM19.4141 14.3866H20.5859V15.623H19.4141V14.3866ZM6.21578 9.81148H7.38766V11.0478H6.21578V9.81148ZM4.80469 21.3112C4.26617 21.3112 3.82812 21.7734 3.82812 22.3415V22.7732L1.26469 20.2809L3.82812 17.7886V18.1379C3.82812 18.7061 4.26617 19.1682 4.80469 19.1682H8.82812V21.3112H4.80469ZM7.38766 22.5476H9.02344C9.56195 22.5476 10 22.0854 10 21.5173V18.9622C10 18.394 9.56195 17.9319 9.02344 17.9319H7.38766V12.2842H7.58297C7.98641 12.2842 8.33336 12.0247 8.48211 11.6558L18.1254 14.9534L12.7175 16.7963C12.4756 16.8787 12.3117 17.1163 12.3117 17.3845V27.3016L8.52461 28.5966C8.41211 28.1587 8.03312 27.8352 7.58297 27.8352H7.38766V22.5476ZM7.38766 30.3077H6.21578V29.0713H7.38766V30.3077ZM14.8003 27.7501L19.4141 26.1724V29.3223L14.8003 27.7501ZM20.5859 30.6216L27.1027 28.4008L31.3502 29.8533L21.6603 33.1901C21.5024 32.8448 21.1682 32.6055 20.7812 32.6055H20.5859V30.6216H20.5859ZM20.5859 35.0782H19.4141V33.8419H20.5859V35.0782ZM33.7842 30.3077H32.6123V29.0713H33.7842V30.3077ZM32.6123 27.835H32.417C31.9668 27.835 31.5878 28.1585 31.4754 28.5964L27.6883 27.3014V24.1828C27.6883 23.8414 27.426 23.5647 27.1023 23.5647C26.7787 23.5647 26.5164 23.8414 26.5164 24.1828V26.9007L20.5859 24.8727V20.2563L26.5164 18.2591V21.2682C26.5164 21.6096 26.7787 21.8864 27.1023 21.8864C27.426 21.8864 27.6883 21.6096 27.6883 21.2682V17.3843C27.6883 17.1161 27.5243 16.8785 27.2825 16.7961L21.8747 14.9532L31.518 11.6556C31.6667 12.0246 32.0137 12.284 32.4171 12.284H32.6124V18.0143H30.9766C30.438 18.0143 30 18.4764 30 19.0446V21.5997C30 22.1678 30.438 22.63 30.9766 22.63H32.6123V27.835ZM36.1719 22.7732V22.4239C36.1719 21.8558 35.7338 21.3936 35.1953 21.3936H31.1719V19.2506H35.1953C35.7338 19.2506 36.1719 18.7885 36.1719 18.2204V17.7886L38.7353 20.2809L36.1719 22.7732Z"  />
</svg>
