<svg width="36" height="40" viewBox="0 0 36 40" fill="none" xmlns="http://www.w3.org/2000/svg">
<g clip-path="url(#clip0_548_166)">
<path d="M30.1149 19.9962C30.9019 19.1958 31.6415 18.3501 32.33 17.4636C34.8929 14.1145 35.6489 11.2266 34.4619 9.32905C33.8874 8.41429 32.5871 7.33321 29.6613 7.33321C27.719 7.38575 25.7943 7.71678 23.946 8.31601C22.5323 3.22812 20.166 0 17.5049 0C14.8437 0 12.4774 3.26592 11.0637 8.31601C9.21502 7.71934 7.29034 7.39085 5.34836 7.34077C2.41508 7.34077 1.12232 8.42941 0.547755 9.33661C-0.639167 11.2266 0.116834 14.1145 2.67968 17.4636C3.3682 18.3501 4.10776 19.1958 4.89476 19.9962C4.10776 20.7966 3.3682 21.6423 2.67968 22.5288C0.116834 25.8703 -0.639167 28.7658 0.547755 30.6634C1.12232 31.5782 2.42264 32.6592 5.34836 32.6592C7.29043 32.6098 9.21521 32.2814 11.0637 31.684C12.4774 36.7719 14.8437 40 17.5049 40C20.166 40 22.5323 36.7341 23.946 31.684C25.7945 32.2814 27.7194 32.6098 29.6613 32.6592C32.5871 32.6592 33.8874 31.5706 34.4619 30.6634C35.6489 28.7658 34.8929 25.8703 32.33 22.5288C31.6415 21.6423 30.9019 20.7966 30.1149 19.9962ZM5.34836 31.1472C4.10852 31.1472 2.49824 30.928 1.8254 29.8545C1.00136 28.5466 1.7498 26.2105 3.88172 23.4436C4.53245 22.607 5.23165 21.8093 5.97584 21.0546C7.18761 22.1888 8.46223 23.2539 9.79364 24.2449C9.9542 26.2522 10.2574 28.2455 10.7008 30.2098C8.97112 30.7785 7.16834 31.0942 5.34836 31.1472ZM9.66512 22.2642C8.73524 21.5082 7.85828 20.7522 7.04936 19.9962C7.85828 19.2402 8.73524 18.4842 9.66512 17.7282C9.66512 18.4842 9.61976 19.2402 9.61976 19.9962C9.61976 20.7522 9.63488 21.5082 9.66512 22.2642ZM9.79364 15.7399L9.78608 15.7551C8.45524 16.7467 7.18062 17.8119 5.96828 18.9454C5.23184 18.1874 4.54019 17.3873 3.89684 16.5489C1.77248 13.7819 1.02404 11.4459 1.84052 10.138C2.51336 9.07201 4.10852 8.84521 5.36348 8.84521C7.17845 8.89907 8.97612 9.2148 10.7008 9.78265C10.2575 11.7444 9.95439 13.7352 9.79364 15.7399ZM23.5529 14.5681C22.9405 14.1448 22.313 13.729 21.6704 13.3207C20.8237 12.7915 19.977 12.2926 19.1303 11.8087C20.3434 11.2278 21.5847 10.7081 22.8498 10.2514C23.1634 11.6762 23.3982 13.1174 23.5529 14.5681ZM17.5049 1.4742C19.3193 1.4742 21.2849 4.22604 22.5096 8.78473C20.7971 9.38962 19.1254 10.1043 17.5049 10.9242C15.8848 10.0966 14.2131 9.37441 12.5001 8.76205C13.7248 4.22604 15.6905 1.4742 17.5049 1.4742ZM12.1297 10.2665C13.3948 10.7232 14.6361 11.243 15.8492 11.8239C15.0025 12.2926 14.1558 12.7915 13.309 13.3359C12.6664 13.7441 12.039 14.1599 11.4266 14.5833C11.5814 13.1325 11.816 11.6914 12.1297 10.2665ZM11.4568 25.4243C12.0692 25.8477 12.6967 26.2635 13.3393 26.6717C14.186 27.2085 15.0327 27.6999 15.8795 28.1837C14.6094 28.7885 13.362 29.3102 12.1599 29.7411C11.8466 28.3161 11.6118 26.8751 11.4568 25.4243ZM17.5049 38.5182C15.6905 38.5182 13.7248 35.7664 12.5001 31.2077C14.2123 30.6022 15.884 29.8875 17.5049 29.0682C19.1252 29.8952 20.7969 30.6174 22.5096 31.2304C21.2849 35.7664 19.3193 38.5182 17.5049 38.5182ZM22.88 29.726C21.678 29.295 20.4306 28.7734 19.1605 28.1686C20.0072 27.6999 20.8539 27.2009 21.7007 26.6566C22.3433 26.2483 22.9707 25.8325 23.5831 25.4092C23.4281 26.86 23.1934 28.301 22.88 29.726ZM23.7645 23.4511C22.8498 24.1164 21.8972 24.7666 20.8993 25.3941C19.7729 26.1047 18.6313 26.7549 17.5049 27.3445C16.3709 26.7473 15.2368 26.0971 14.1104 25.3941C13.12 24.7666 12.1599 24.1164 11.2452 23.4511C11.1696 22.3398 11.1242 21.1831 11.1242 19.9962C11.1242 18.8093 11.1696 17.6526 11.2452 16.5413C12.1599 15.876 13.1125 15.2259 14.1104 14.5984C15.2368 13.8877 16.3784 13.2376 17.5049 12.6479C18.6389 13.2451 19.7729 13.8953 20.8993 14.5984C21.8897 15.2259 22.8498 15.876 23.7645 16.5413C23.8401 17.6526 23.8855 18.8093 23.8855 19.9962C23.8855 21.1831 23.8326 22.3398 23.757 23.4511H23.7645ZM29.6462 8.83765C30.8861 8.83765 32.4963 9.06445 33.1692 10.1304C33.9932 11.4383 33.2448 13.7743 31.1129 16.5413C30.4695 17.3797 29.7779 18.1798 29.0414 18.9378V18.9227C27.8291 17.7892 26.5545 16.7241 25.2236 15.7324C25.06 13.73 24.7543 11.7417 24.3089 9.78265C26.0332 9.21225 27.8309 8.89397 29.6462 8.83765ZM25.3446 17.7282C26.2745 18.4842 27.1514 19.2402 27.9603 19.9962C27.1514 20.7522 26.2745 21.5082 25.3446 22.2642C25.3446 21.5082 25.3899 20.7522 25.3899 19.9962C25.3899 19.2402 25.3748 18.4842 25.3446 17.7282ZM33.1919 29.862C32.519 30.928 30.9239 31.1548 29.6689 31.1548C27.846 31.1001 26.0406 30.7817 24.3089 30.2098C24.7495 28.2479 25.0501 26.257 25.2085 24.2525C26.5399 23.2615 27.8145 22.1964 29.0263 21.0622C29.7677 21.8147 30.4643 22.6098 31.1129 23.4436L31.1355 23.4511C33.2599 26.2181 34.0084 28.5541 33.1919 29.862Z"  />
<path d="M17.5044 16.4277C15.5337 16.4277 13.936 18.0254 13.936 19.9961C13.936 21.9668 15.5337 23.5644 17.5044 23.5644C19.4751 23.5644 21.0727 21.9668 21.0727 19.9961C21.0727 18.0254 19.4751 16.4277 17.5044 16.4277ZM17.5044 22.0524C16.3687 22.0524 15.448 21.1318 15.448 19.9961C15.448 18.8604 16.3687 17.9397 17.5044 17.9397C18.6401 17.9397 19.5607 18.8604 19.5607 19.9961C19.5607 21.1318 18.6401 22.0524 17.5044 22.0524Z"  />
</g>
<defs>
<clipPath id="clip0_548_166">
<rect width="35.0097" height="40" fill="white"/>
</clipPath>
</defs>
</svg>
