<svg width="40" height="40" viewBox="0 0 40 40" fill="none" xmlns="http://www.w3.org/2000/svg">
<path d="M20.6929 39C20.543 39 20.393 38.9317 20.2785 38.7951L18.6212 36.8157C18.3924 36.5423 18.3924 36.0992 18.6212 35.826L20.2785 33.8465C20.5073 33.5731 20.8783 33.5731 21.1071 33.8464C21.3359 34.1197 21.336 34.5628 21.1072 34.836L20.4501 35.6209H39.4139C39.7376 35.6209 39.9998 35.9341 39.9998 36.3207C39.9998 36.7073 39.7376 37.0206 39.4139 37.0206H20.4501L21.1072 37.8052C21.336 38.0786 21.336 38.5217 21.1072 38.795C20.9928 38.9317 20.8428 39 20.6929 39ZM16.6919 37.0207H0.585997C0.262326 37.0207 6.17333e-05 36.7074 6.17333e-05 36.3208C6.17333e-05 35.9342 0.262326 35.621 0.585997 35.621H16.6919C17.0155 35.621 17.2778 35.9342 17.2778 36.3208C17.2778 36.7074 17.0155 37.0207 16.6919 37.0207ZM36.2926 33.258C36.1427 33.258 35.9927 33.1896 35.8782 33.053L34.221 31.0736C33.9921 30.8002 33.9921 30.3572 34.221 30.0839L35.8782 28.1044C36.1072 27.8309 36.4782 27.8312 36.7068 28.1043C36.9357 28.3776 36.9357 28.8208 36.7069 29.094L36.0499 29.8788H39.4139C39.7376 29.8788 39.9998 30.1921 39.9998 30.5787C39.9998 30.9653 39.7376 31.2785 39.4139 31.2785H36.0499L36.7069 32.0632C36.9357 32.3366 36.9357 32.7796 36.7069 33.0529C36.5925 33.1897 36.4425 33.258 36.2926 33.258ZM32.2917 31.2785H0.585997C0.262326 31.2785 6.17333e-05 30.9653 6.17333e-05 30.5787C6.17333e-05 30.1921 0.262326 29.8788 0.585997 29.8788H32.2917C32.6153 29.8788 32.8776 30.1921 32.8776 30.5787C32.8776 30.9653 32.6153 31.2785 32.2917 31.2785ZM4.42598 27.7246C4.27606 27.7246 4.12606 27.6563 4.01161 27.5197L2.49529 25.7085C1.79099 25.6016 1.15967 25.5365 0.585997 25.5365C0.262326 25.5365 6.17333e-05 25.2232 6.17333e-05 24.8366C6.17333e-05 24.4501 0.262326 24.1368 0.585997 24.1368C1.19303 24.1368 1.84326 24.201 2.5581 24.3072L4.01161 22.5711C4.24044 22.2977 4.61145 22.2976 4.8402 22.571C5.06911 22.8443 5.06911 23.2875 4.84028 23.5607L4.0077 24.5552C4.38841 24.6263 4.78661 24.7036 5.20434 24.7847C8.51417 25.427 13.0471 26.3068 19.9999 26.3068C28.7443 26.3068 33.5619 25.2517 36.4403 24.6214C37.7245 24.34 38.6524 24.1369 39.4139 24.1369C39.7376 24.1369 39.9998 24.4501 39.9998 24.8367C39.9998 25.2233 39.7376 25.5366 39.4139 25.5366C38.759 25.5366 37.8751 25.7301 36.6516 25.9981C33.734 26.6371 28.8508 27.7065 19.9999 27.7065C12.9526 27.7065 8.36566 26.8163 5.01645 26.1663C4.82083 26.1284 4.62965 26.0912 4.4427 26.0553L4.84028 26.5301C5.06911 26.8035 5.06911 27.2465 4.84028 27.5198C4.7259 27.6563 4.57598 27.7246 4.42598 27.7246ZM29.7468 23.5074H21.3794C21.0557 23.5074 20.7934 23.1942 20.7934 22.8076C20.7934 22.421 21.0557 22.1077 21.3794 22.1077H29.7468C30.4648 22.1077 31.0667 21.6401 31.3566 20.8571C31.5818 20.2489 31.6185 19.331 31.0458 18.5789C29.4146 16.4362 26.3282 14.9966 23.3655 14.9966C18.8022 14.9966 13.4381 17.7758 8.32128 20.7792C7.93292 21.0071 7.98347 21.4397 8.00824 21.5669C8.03285 21.6937 8.14699 22.1077 8.57886 22.1077H19.0355C19.3592 22.1077 19.6215 22.421 19.6215 22.8076C19.6215 23.1942 19.3592 23.5074 19.0355 23.5074H8.57894C7.74394 23.5074 7.0559 22.855 6.86691 21.8838C6.67777 20.9119 7.05457 19.9632 7.80457 19.523C13.0484 16.4452 18.563 13.5969 23.3657 13.5969C26.6384 13.5969 30.0732 15.2206 31.9129 17.6372C32.7087 18.6823 32.9062 20.1331 32.4285 21.4232C31.9524 22.7088 30.9247 23.5074 29.7468 23.5074ZM0.585294 19.7944C0.286155 19.7944 0.0307647 19.5222 0.00256172 19.1594C-0.0274382 18.7744 0.209514 18.4335 0.5317 18.3977C2.51044 18.1781 5.67528 16.5085 9.02597 14.7407C12.7964 12.7514 17.0699 10.4968 20.7624 9.70144C21.081 9.63239 21.3856 9.88554 21.443 10.266C21.5005 10.6463 21.2888 11.0103 20.9704 11.0789C17.4155 11.8446 13.2099 14.0634 9.49948 16.021C5.90957 17.915 2.80919 19.5507 0.640294 19.7914C0.621778 19.7934 0.603419 19.7944 0.585294 19.7944ZM39.414 19.7944C38.3988 19.7944 37.1808 18.6818 35.4951 17.1419C32.8564 14.7314 29.3328 11.5124 24.8664 10.9003L25.4373 11.5822C25.6661 11.8556 25.6661 12.2987 25.4373 12.572C25.2084 12.8452 24.8375 12.8452 24.6086 12.572L22.9514 10.5926C22.7226 10.3192 22.7226 9.87612 22.9514 9.60281L24.6086 7.62338C24.8376 7.35016 25.2085 7.35016 25.4373 7.62338C25.6661 7.89678 25.6661 8.33983 25.4373 8.61314L24.7153 9.47544C29.6542 10.0437 33.5567 13.609 36.2071 16.03C37.5382 17.2461 38.7955 18.3947 39.4141 18.3947C39.7377 18.3947 40 18.7079 40 19.0945C40 19.4811 39.7376 19.7944 39.414 19.7944ZM2.24318 16.0319C2.09318 16.0319 1.94326 15.9636 1.82881 15.8269L0.171624 13.8474C-0.0572037 13.5741 -0.0572037 13.131 0.171624 12.8577L1.82888 10.8783C2.05779 10.6051 2.42873 10.6051 2.65755 10.8783C2.88638 11.1517 2.88638 11.5947 2.65755 11.868L2.17216 12.4477C4.24137 11.9834 6.79066 10.7957 9.45917 9.55242C13.839 7.51178 18.8032 5.19895 23.3656 5.19895C28.3479 5.19895 32.421 8.1882 35.3951 10.371C37.0634 11.5954 38.5044 12.6528 39.4139 12.6528C39.7376 12.6528 39.9998 12.966 39.9998 13.3526C39.9998 13.7392 39.7376 14.0525 39.4139 14.0525C38.173 14.0525 36.6764 12.9541 34.7816 11.5635C31.7676 9.35152 28.0166 6.59863 23.3656 6.59863C19.0237 6.59863 14.1685 8.8606 9.88503 10.8565C6.96012 12.2192 4.17427 13.5171 1.89185 13.9227L2.65755 14.8373C2.88638 15.1106 2.88638 15.5538 2.65747 15.827C2.5431 15.9635 2.3931 16.0319 2.24318 16.0319ZM38.9122 10.0102C38.7622 10.0102 38.6123 9.9419 38.4978 9.80529L36.9591 7.96733C35.082 7.45178 33.3723 6.43122 31.7027 5.43447C29.2031 3.94241 26.6184 2.39959 23.3657 2.39959C19.4093 2.39959 16.0687 3.63448 12.712 5.01036C12.4059 5.13615 12.0726 4.94122 11.9676 4.57562C11.8626 4.21003 12.0255 3.81196 12.3316 3.68655C15.7858 2.27072 19.2288 1 23.3657 1C26.895 1 29.6053 2.61794 32.2265 4.18259C33.8453 5.14874 35.402 6.07804 37.0692 6.56317L38.4978 4.85677C38.7267 4.58337 39.0977 4.58346 39.3264 4.85668C39.5553 5.12999 39.5553 5.57313 39.3265 5.84634L38.482 6.85505C38.7874 6.89163 39.0978 6.91094 39.4139 6.91094C39.7376 6.91094 39.9998 7.22419 39.9998 7.61078C39.9998 7.99737 39.7376 8.31062 39.4139 8.31062C39.2377 8.31062 39.0633 8.30521 38.8902 8.29466L39.3265 8.81563C39.5553 9.08903 39.5553 9.53208 39.3265 9.80539C39.2121 9.94181 39.0621 10.0102 38.9122 10.0102ZM0.585997 8.31044C0.262326 8.31044 6.17333e-05 7.99719 6.17333e-05 7.61059C6.17333e-05 7.224 0.262326 6.91075 0.585997 6.91075C4.09059 6.91075 7.22738 5.76367 9.89245 4.68862C10.1989 4.56498 10.5315 4.76141 10.6351 5.12766C10.7386 5.49391 10.5741 5.89104 10.2675 6.01468C7.5141 7.12537 4.26825 8.31044 0.585997 8.31044Z"/>
</svg>
