<svg width="40" height="40" viewBox="0 0 40 40" fill="none" xmlns="http://www.w3.org/2000/svg">
<g clip-path="url(#clip0_548_154)">
<path d="M4.15458 12.0755H21.2512C21.4402 12.0755 21.6214 12.0048 21.7549 11.879C21.8885 11.7532 21.9636 11.5825 21.9636 11.4046V6.03774C21.9636 5.85981 21.8885 5.68918 21.7549 5.56337C21.6214 5.43756 21.4402 5.36688 21.2512 5.36688H4.15458C3.96565 5.36688 3.78445 5.43756 3.65086 5.56337C3.51727 5.68918 3.44222 5.85981 3.44222 6.03774V11.4046C3.44222 11.5825 3.51727 11.7532 3.65086 11.879C3.78445 12.0048 3.96565 12.0755 4.15458 12.0755ZM4.86694 6.7086H20.5389V10.7338H4.86694V6.7086Z"  />
<path d="M3.44222 2.68344H4.86694V4.02516H3.44222V2.68344Z"  />
<path d="M6.29166 2.68344H7.71638V4.02516H6.29166V2.68344Z"  />
<path d="M11.9905 14.0881H13.4153V16.1006H11.9905V14.0881Z"  />
<path d="M4.15458 21.4675H6.29166V22.8092H4.15458V21.4675Z"  />
<path d="M19.1141 21.4675H21.2512V22.8092H19.1141V21.4675Z"  />
<path d="M11.9905 28.1761H13.4153V30.1887H11.9905V28.1761Z"  />
<path d="M5.5793 30.8595C5.15662 30.8595 4.74344 30.9776 4.392 31.1987C4.04056 31.4199 3.76664 31.7342 3.60489 32.1019C3.44314 32.4697 3.40082 32.8744 3.48328 33.2648C3.56574 33.6552 3.76928 34.0138 4.06815 34.2952C4.36703 34.5767 4.74782 34.7684 5.16237 34.846C5.57692 34.9237 6.00662 34.8838 6.39712 34.7315C6.78762 34.5792 7.12139 34.3212 7.35621 33.9903C7.59104 33.6593 7.71638 33.2702 7.71638 32.8721C7.71638 32.3384 7.49122 31.8264 7.09044 31.449C6.68966 31.0716 6.14608 30.8595 5.5793 30.8595ZM5.5793 33.543C5.4384 33.543 5.30068 33.5036 5.18353 33.4299C5.06638 33.3562 4.97508 33.2514 4.92116 33.1288C4.86724 33.0063 4.85314 32.8714 4.88062 32.7412C4.90811 32.6111 4.97596 32.4916 5.07558 32.3978C5.17521 32.3039 5.30214 32.24 5.44032 32.2142C5.57851 32.1883 5.72174 32.2016 5.8519 32.2523C5.98207 32.3031 6.09333 32.3891 6.1716 32.4994C6.24988 32.6097 6.29166 32.7394 6.29166 32.8721C6.29166 33.05 6.2166 33.2207 6.08301 33.3465C5.94942 33.4723 5.76823 33.543 5.5793 33.543Z"  />
<path d="M11.2782 30.8595C10.8555 30.8595 10.4423 30.9776 10.0909 31.1987C9.73944 31.4199 9.46553 31.7342 9.30377 32.1019C9.14202 32.4697 9.0997 32.8744 9.18216 33.2648C9.26462 33.6552 9.46816 34.0138 9.76704 34.2952C10.0659 34.5767 10.4467 34.7684 10.8613 34.846C11.2758 34.9237 11.7055 34.8838 12.096 34.7315C12.4865 34.5792 12.8203 34.3212 13.0551 33.9903C13.2899 33.6593 13.4153 33.2702 13.4153 32.8721C13.4153 32.3384 13.1901 31.8264 12.7893 31.449C12.3885 31.0716 11.845 30.8595 11.2782 30.8595ZM11.2782 33.543C11.1373 33.543 10.9996 33.5036 10.8824 33.4299C10.7653 33.3562 10.674 33.2514 10.62 33.1288C10.5661 33.0063 10.552 32.8714 10.5795 32.7412C10.607 32.6111 10.6748 32.4916 10.7745 32.3978C10.8741 32.3039 11.001 32.24 11.1392 32.2142C11.2774 32.1883 11.4206 32.2016 11.5508 32.2523C11.681 32.3031 11.7922 32.3891 11.8705 32.4994C11.9488 32.6097 11.9905 32.7394 11.9905 32.8721C11.9905 33.05 11.9155 33.2207 11.7819 33.3465C11.6483 33.4723 11.4671 33.543 11.2782 33.543Z"  />
<path d="M17.6894 22.1384C17.6894 21.2096 17.397 20.3017 16.849 19.5294C16.3011 18.7571 15.5223 18.1552 14.6112 17.7998C13.7 17.4444 12.6974 17.3514 11.7301 17.5326C10.7628 17.7138 9.87428 18.161 9.1769 18.8178C8.47952 19.4745 8.0046 20.3113 7.8122 21.2222C7.61979 22.1332 7.71854 23.0774 8.09596 23.9355C8.47337 24.7935 9.11251 25.527 9.93254 26.043C10.7526 26.559 11.7167 26.8344 12.7029 26.8344C14.0249 26.8328 15.2922 26.3375 16.227 25.4572C17.1618 24.5769 17.6877 23.3833 17.6894 22.1384ZM10.5658 24.8044C10.1238 24.4956 9.76472 24.0936 9.5173 23.6307C9.26989 23.1677 9.14102 22.6567 9.14102 22.1384C9.14102 21.6201 9.26989 21.109 9.5173 20.6461C9.76472 20.1831 10.1238 19.7812 10.5658 19.4724V24.8044ZM13.4153 25.4249C12.9452 25.5153 12.4606 25.5153 11.9905 25.4249V18.8512C12.4606 18.7608 12.9452 18.7608 13.4153 18.8512V25.4249ZM14.84 24.8044V19.4724C15.282 19.7812 15.6411 20.1831 15.8885 20.6461C16.1359 21.109 16.2648 21.6201 16.2648 22.1384C16.2648 22.6567 16.1359 23.1677 15.8885 23.6307C15.6411 24.0936 15.282 24.4956 14.84 24.8044Z"  />
<path d="M7.20993 15.9036L8.21737 14.9548L9.64188 16.2963L8.63445 17.2451L7.20993 15.9036Z"  />
<path d="M4.47236 18.6777L5.26298 17.5615L7.39993 18.9039L6.60931 20.0201L4.47236 18.6777Z"  />
<path d="M15.7566 16.2966L17.1811 14.9551L18.1885 15.9039L16.764 17.2454L15.7566 16.2966Z"  />
<path d="M18.0111 18.8905L20.1481 17.548L20.9387 18.6642L18.8017 20.0066L18.0111 18.8905Z"  />
<path d="M7.20827 27.6997L8.63278 26.3582L9.64021 27.3069L8.2157 28.6484L7.20827 27.6997Z"  />
<path d="M4.47903 24.9313L6.61599 23.5889L7.40661 24.7051L5.26966 26.0475L4.47903 24.9313Z"  />
<path d="M15.7566 27.3071L16.764 26.3584L18.1885 27.6999L17.1811 28.6486L15.7566 27.3071Z"  />
<path d="M18.0117 24.717L18.8023 23.6008L20.9392 24.9433L20.1486 26.0594L18.0117 24.717Z"  />
<path d="M3.44222 13.4172H6.29166V14.7589H3.44222V13.4172Z"  />
<path d="M19.1141 13.4172H21.9636V14.7589H19.1141V13.4172Z"  />
<path d="M39.7726 13.4172H38.9769L38.3422 8.63799C38.3207 8.47577 38.237 8.32653 38.1068 8.21832C37.9767 8.1101 37.8091 8.05036 37.6355 8.05032V5.36688H36.2108V8.05032C36.0372 8.05036 35.8696 8.1101 35.7395 8.21832C35.6093 8.32653 35.5257 8.47577 35.5041 8.63799L34.8694 13.4172H34.0737C33.8848 13.4172 33.7036 13.4879 33.57 13.6137C33.4364 13.7395 33.3614 13.9101 33.3614 14.0881V16.7715C33.3614 16.9494 33.4364 17.1201 33.57 17.2459C33.7036 17.3717 33.8848 17.4424 34.0737 17.4424H34.7861V29.5178C34.786 29.5497 34.7883 29.5815 34.7932 29.6131L35.5056 34.3091C35.5299 34.4689 35.6146 34.6151 35.7442 34.7208C35.8737 34.8265 36.0394 34.8847 36.2108 34.8847V38.239C36.2108 38.4169 36.1357 38.5876 36.0022 38.7134C35.8686 38.8392 35.6874 38.9099 35.4984 38.9099H29.781C30.2525 38.3327 30.5093 37.6255 30.5119 36.8973V30.1887C30.6833 30.1887 30.849 30.1305 30.9786 30.0248C31.1081 29.9191 31.1928 29.7729 31.2172 29.6131L31.9295 24.9171C31.9344 24.8855 31.9367 24.8537 31.9366 24.8218V12.7463H32.649C32.8379 12.7463 33.0191 12.6757 33.1527 12.5498C33.2863 12.424 33.3614 12.2534 33.3614 12.0755V9.39204C33.3614 9.21411 33.2863 9.04348 33.1527 8.91767C33.0191 8.79186 32.8379 8.72118 32.649 8.72118H31.8533L31.2186 3.94197C31.197 3.77975 31.1134 3.63051 30.9832 3.5223C30.8531 3.41409 30.6855 3.35434 30.5119 3.3543V0.67086H29.0872V3.3543C28.9136 3.35434 28.746 3.41409 28.6159 3.5223C28.4857 3.63051 28.4021 3.77975 28.3805 3.94197L27.7458 8.72118H26.9501C26.7612 8.72118 26.58 8.79186 26.4464 8.91767C26.3128 9.04348 26.2377 9.21411 26.2377 9.39204V12.0755C26.2377 12.2534 26.3128 12.424 26.4464 12.5498C26.58 12.6757 26.7612 12.7463 26.9501 12.7463H27.6625V24.8218C27.6624 24.8537 27.6647 24.8855 27.6696 24.9171L28.382 29.6131C28.4063 29.7729 28.491 29.9191 28.6206 30.0248C28.7501 30.1305 28.9158 30.1887 29.0872 30.1887V36.8973C29.0872 37.431 28.862 37.943 28.4613 38.3204C28.0605 38.6978 27.5169 38.9099 26.9501 38.9099H21.9636C21.5857 38.9099 21.2233 38.7685 20.9562 38.5169C20.689 38.2653 20.5389 37.924 20.5389 37.5681H22.6759C23.2427 37.5681 23.7863 37.3561 24.1871 36.9787C24.5879 36.6012 24.813 36.0893 24.813 35.5556V2.01258C24.813 1.47881 24.5879 0.966903 24.1871 0.589471C23.7863 0.212039 23.2427 0 22.6759 0H2.72985C2.16307 0 1.61949 0.212039 1.21871 0.589471C0.81793 0.966903 0.592773 1.47881 0.592773 2.01258V35.5556C0.592773 36.0893 0.81793 36.6012 1.21871 36.9787C1.61949 37.3561 2.16307 37.5681 2.72985 37.5681H16.2647V38.239C16.2647 38.7728 16.4899 39.2847 16.8906 39.6621C17.2914 40.0395 17.835 40.2516 18.4018 40.2516H35.4984C36.0652 40.2516 36.6088 40.0395 37.0096 39.6621C37.4104 39.2847 37.6355 38.7728 37.6355 38.239V34.8847C37.8069 34.8847 37.9726 34.8265 38.1022 34.7208C38.2317 34.6151 38.3164 34.4689 38.3408 34.3091L39.0531 29.6131C39.058 29.5815 39.0603 29.5497 39.0602 29.5178V17.4424H39.7726C39.9615 17.4424 40.1427 17.3717 40.2763 17.2459C40.4099 17.1201 40.485 16.9494 40.485 16.7715V14.0881C40.485 13.9101 40.4099 13.7395 40.2763 13.6137C40.1427 13.4879 39.9615 13.4172 39.7726 13.4172ZM20.5389 36.2264H19.1141V32.2013H20.5389V36.2264ZM13.4153 1.34172H20.5389V2.68344H13.4153V1.34172ZM15.5523 30.8595C15.3634 30.8595 15.1822 30.9302 15.0486 31.056C14.915 31.1818 14.84 31.3525 14.84 31.5304V36.2264H2.72985C2.54093 36.2264 2.35973 36.1557 2.22614 36.0299C2.09255 35.9041 2.01749 35.7335 2.01749 35.5556V2.01258C2.01749 1.83466 2.09255 1.66402 2.22614 1.53821C2.35973 1.4124 2.54093 1.34172 2.72985 1.34172H11.9905V3.3543C11.9905 3.53222 12.0656 3.70286 12.1992 3.82867C12.3328 3.95448 12.514 4.02516 12.7029 4.02516H21.2512C21.4402 4.02516 21.6213 3.95448 21.7549 3.82867C21.8885 3.70286 21.9636 3.53222 21.9636 3.3543V1.34172H22.6759C22.8649 1.34172 23.0461 1.4124 23.1797 1.53821C23.3133 1.66402 23.3883 1.83466 23.3883 2.01258V35.5556C23.3883 35.7335 23.3133 35.9041 23.1797 36.0299C23.0461 36.1557 22.8649 36.2264 22.6759 36.2264H21.9636V31.5304C21.9636 31.3525 21.8885 31.1818 21.7549 31.056C21.6213 30.9302 21.4402 30.8595 21.2512 30.8595H15.5523ZM16.2647 36.2264V32.2013H17.6894V36.2264H16.2647ZM18.4018 38.9099C18.2129 38.9099 18.0317 38.8392 17.8981 38.7134C17.7645 38.5876 17.6894 38.4169 17.6894 38.239V37.5681H19.1141C19.1171 38.0406 19.2538 38.5038 19.5102 38.9099H18.4018ZM29.7162 4.69602H29.8829L30.4172 8.72118H29.1819L29.7162 4.69602ZM27.6625 11.4046V10.0629H31.9366V11.4046H27.6625ZM29.0872 24.7742V12.7463H30.5119V24.7742L29.8943 28.847H29.7048L29.0872 24.7742ZM36.8398 9.39204H37.0065L37.5408 13.4172H36.3055L36.8398 9.39204ZM37.6355 29.4702L37.0179 33.543H36.8284L36.2108 29.4702V17.4424H37.6355V29.4702ZM39.0602 16.1006H34.7861V14.7589H39.0602V16.1006Z"  />
</g>
<defs>
<clipPath id="clip0_548_154">
<rect width="40" height="40" fill="white"/>
</clipPath>
</defs>
</svg>
