<svg width="40" height="40" viewBox="0 0 40 40" fill="none" xmlns="http://www.w3.org/2000/svg">
<g clip-path="url(#clip0_548_142)">
<path d="M31.1928 27.5537C29.1078 27.5537 27.4746 28.6368 27.4746 30.0195C27.4746 31.4021 29.1078 32.4853 31.1928 32.4853C33.2778 32.4853 34.911 31.4021 34.911 30.0195C34.911 28.6368 33.2778 27.5537 31.1928 27.5537ZM31.1928 31.3111C29.7367 31.3111 28.6487 30.6292 28.6487 30.0195C28.6487 29.4098 29.7366 28.7279 31.1928 28.7279C32.6489 28.7279 33.7369 29.4098 33.7369 30.0195C33.7369 30.6292 32.6489 31.3111 31.1928 31.3111Z"/>
<path d="M8.64984 27.5537C6.56484 27.5537 4.93164 28.6368 4.93164 30.0195C4.93164 31.4021 6.56484 32.4853 8.64984 32.4853C10.7348 32.4853 12.368 31.4021 12.368 30.0195C12.368 28.6368 10.7348 27.5537 8.64984 27.5537ZM8.64984 31.3111C7.19383 31.3111 6.10578 30.6292 6.10578 30.0195C6.10578 29.4098 7.19375 28.7279 8.64984 28.7279C10.1059 28.7279 11.1939 29.4098 11.1939 30.0195C11.1939 30.6292 10.1059 31.3111 8.64984 31.3111Z"/>
<path d="M10.5281 25.6748H6.7707C6.44648 25.6748 6.18359 25.9376 6.18359 26.2619C6.18359 26.5862 6.44648 26.849 6.7707 26.849H10.5281C10.8523 26.849 11.1152 26.5862 11.1152 26.2619C11.1152 25.9376 10.8523 25.6748 10.5281 25.6748Z"/>
<path d="M33.073 25.6748H29.3156C28.9913 25.6748 28.7285 25.9376 28.7285 26.2619C28.7285 26.5862 28.9913 26.849 29.3156 26.849H33.073C33.3973 26.849 33.6601 26.5862 33.6601 26.2619C33.6601 25.9376 33.3973 25.6748 33.073 25.6748Z"/>
<path d="M32.2234 19.8046L29.9396 13.3339C29.7688 12.8497 29.3089 12.5244 28.7955 12.5244H11.0485C10.535 12.5244 10.0752 12.8497 9.90433 13.3339L7.62058 19.8046C7.48793 20.1804 7.77621 20.5871 8.17418 20.5871H31.6698C31.8603 20.5871 32.0389 20.4946 32.1489 20.3391C32.259 20.1835 32.2868 19.9842 32.2234 19.8046ZM9.00394 19.4128L11.0115 13.7246C11.0168 13.7096 11.0324 13.6986 11.0484 13.6986H28.7955C28.8115 13.6986 28.8271 13.7096 28.8325 13.7247L30.84 19.4128H9.00394Z"/>
<path d="M39.4134 10.6455C38.3559 10.6455 37.4955 9.78531 37.4955 8.72773C37.4955 8.40344 37.2327 8.14062 36.9084 8.14062C36.5841 8.14062 36.3213 8.40344 36.3213 8.72773C36.3213 9.78523 35.4611 10.6455 34.4035 10.6455C34.0792 10.6455 33.8164 10.9084 33.8164 11.2327C33.8164 11.557 34.0792 11.8198 34.4035 11.8198C35.461 11.8198 36.3213 12.6801 36.3213 13.7376C36.3213 14.0619 36.5841 14.3247 36.9084 14.3247C37.2327 14.3247 37.4955 14.0619 37.4955 13.7376C37.4955 12.6801 38.3558 11.8198 39.4134 11.8198C39.7377 11.8198 40.0005 11.557 40.0005 11.2327C40.0005 10.9084 39.7377 10.6455 39.4134 10.6455ZM36.9085 11.9267C36.7154 11.6604 36.4807 11.4258 36.2145 11.2327C36.4808 11.0395 36.7155 10.8048 36.9085 10.5386C37.1016 10.8049 37.3363 11.0395 37.6026 11.2327C37.3362 11.4258 37.1016 11.6605 36.9085 11.9267Z"/>
<path d="M5.59695 10.6455C4.53953 10.6455 3.67914 9.78531 3.67914 8.72773C3.67914 8.40344 3.41625 8.14062 3.09203 8.14062C2.76781 8.14062 2.50492 8.40344 2.50492 8.72773C2.50492 9.78523 1.64453 10.6455 0.587109 10.6455C0.262891 10.6455 0 10.9084 0 11.2327C0 11.557 0.262891 11.8198 0.587109 11.8198C1.64453 11.8198 2.50492 12.6801 2.50492 13.7376C2.50492 14.0619 2.76781 14.3247 3.09203 14.3247C3.41625 14.3247 3.67914 14.0619 3.67914 13.7376C3.67914 12.6801 4.53953 11.8198 5.59695 11.8198C5.92117 11.8198 6.18406 11.557 6.18406 11.2327C6.18406 10.9084 5.92117 10.6455 5.59695 10.6455ZM3.09203 11.9267C2.89891 11.6604 2.6643 11.4258 2.39797 11.2327C2.66437 11.0395 2.89898 10.8048 3.09203 10.5386C3.28516 10.8049 3.51977 11.0395 3.78609 11.2327C3.51984 11.4258 3.28516 11.6605 3.09203 11.9267Z"/>
<path d="M23.1306 3.13109C21.7278 3.13109 20.5866 1.98992 20.5866 0.587031C20.5866 0.262812 20.3238 0 19.9995 0C19.6753 0 19.4124 0.262812 19.4124 0.587109C19.4124 1.98992 18.2711 3.13117 16.8684 3.13117C16.5441 3.13117 16.2812 3.39398 16.2812 3.71828C16.2812 4.04258 16.5441 4.30539 16.8684 4.30539C18.2711 4.30539 19.4124 5.44664 19.4124 6.84945C19.4124 7.17375 19.6753 7.43656 19.9995 7.43656C20.3238 7.43656 20.5866 7.17375 20.5866 6.84945C20.5866 5.44664 21.7279 4.30539 23.1307 4.30539C23.455 4.30539 23.7178 4.04258 23.7178 3.71828C23.7178 3.39398 23.4549 3.13109 23.1306 3.13109ZM19.9995 4.84586C19.7093 4.39398 19.3237 4.00844 18.8718 3.7182C19.3237 3.42797 19.7093 3.04242 19.9995 2.59055C20.2898 3.04242 20.6753 3.42797 21.1272 3.7182C20.6753 4.00844 20.2898 4.39398 19.9995 4.84586Z"/>
<path d="M38.7094 18.7864H35.5783C35.3089 18.7864 35.0741 18.9698 35.0087 19.2311L34.5963 20.8807L31.7119 12.7084C31.2764 11.4746 30.1047 10.6455 28.7962 10.6455H11.0491C9.74062 10.6455 8.56891 11.4746 8.13344 12.7085L5.24906 20.8808L4.83664 19.2311C4.77125 18.9697 4.53641 18.7864 4.26711 18.7864H1.13594C0.811719 18.7864 0.548828 19.0493 0.548828 19.3736V21.8785C0.548828 22.2028 0.811719 22.4656 1.13594 22.4656H4.37867L2.37719 25.2676C2.00047 25.795 1.80133 26.4166 1.80133 27.0648V34.4029C1.80133 35.4197 2.29484 36.3233 3.05477 36.8871C3.05453 36.894 3.05375 36.9008 3.05375 36.9078V38.7864C3.05375 39.4555 3.59805 39.9997 4.26703 39.9997H8.02437C8.69344 39.9997 9.23766 39.4554 9.23766 38.7864V37.4949H30.6075V38.7864C30.6075 39.4555 31.1518 39.9997 31.8208 39.9997H35.5781C36.2472 39.9997 36.7914 39.4554 36.7914 38.7864V36.9078C36.7914 36.9008 36.7906 36.894 36.7904 36.8871C37.5503 36.3233 38.0438 35.4197 38.0438 34.4029V27.0648C38.0438 26.4165 37.8446 25.795 37.4679 25.2676L35.4664 22.4656H38.7092C39.0335 22.4656 39.2963 22.2028 39.2963 21.8785V19.3736C39.2964 19.0492 39.0337 18.7864 38.7094 18.7864ZM1.72305 21.2913V19.9606H3.80867L4.14133 21.2913H1.72305ZM8.06359 38.7864C8.06359 38.808 8.04609 38.8256 8.02445 38.8256H4.26711C4.24555 38.8256 4.22797 38.808 4.22797 38.7864V37.4949H8.06359V38.7864ZM35.6173 38.7864C35.6173 38.808 35.5998 38.8256 35.5782 38.8256H31.8209C31.7993 38.8256 31.7817 38.808 31.7817 38.7864V37.4949H35.6173V38.7864ZM34.952 36.3207H4.89328C4.04055 36.3207 3.31633 35.7611 3.06773 34.99H36.7775C36.5289 35.7611 35.8048 36.3207 34.952 36.3207ZM24.9716 29.9802V31.3109H14.8737V29.9802H24.9716ZM14.966 28.806C15.2146 28.0348 15.9387 27.4753 16.7916 27.4753H23.0538C23.9066 27.4753 24.6308 28.0348 24.8794 28.806H14.966ZM24.9716 32.485V33.8157H14.8737V32.485H24.9716ZM36.5127 25.95C36.7463 26.2771 36.8698 26.6626 36.8698 27.0647V33.8158H26.1458V29.3931C26.1458 27.6882 24.7587 26.3011 23.0538 26.3011H16.7916C15.0866 26.3011 13.6996 27.6882 13.6996 29.3931V33.8158H2.97547V27.0647C2.97547 26.6626 3.09898 26.2771 3.33266 25.95L5.82164 22.4655H27.4373C27.7616 22.4655 28.0244 22.2027 28.0244 21.8784C28.0244 21.5541 27.7616 21.2913 27.4373 21.2913H6.3493L9.24062 13.0992C9.51078 12.3339 10.2375 11.8196 11.0491 11.8196H28.7962C29.6078 11.8196 30.3345 12.3339 30.6048 13.0992L33.496 21.2913H29.9422C29.6179 21.2913 29.3551 21.5541 29.3551 21.8784C29.3551 22.2027 29.6179 22.4655 29.9422 22.4655H34.0237L36.5127 25.95ZM38.1223 21.2913H35.7039L36.0366 19.9606H38.1223V21.2913Z"/>
</g>
<defs>
<clipPath id="clip0_548_142">
<rect width="40" height="40" fill="white"/>
</clipPath>
</defs>
</svg>
