<svg width="41" height="40" viewBox="0 0 41 40" fill="none" xmlns="http://www.w3.org/2000/svg">
<g clip-path="url(#clip0_548_146)">
<path d="M32.4342 17.3578L31.6127 16.5363C31.3823 16.3059 31.0088 16.3058 30.7784 16.5362C30.5481 16.7666 30.548 17.1402 30.7784 17.3705L31.1636 17.7558C30.0298 18.699 28.6154 19.2124 27.1223 19.2124C25.4309 19.2124 23.8406 18.5537 22.6446 17.3577C20.3162 15.0293 20.1835 11.3241 22.2468 8.83889L28.7715 15.3637C29.0019 15.5941 29.3754 15.5941 29.6059 15.3637C29.8363 15.1332 29.8363 14.7598 29.6059 14.5293L29.1495 14.073L30.7849 9.98434C30.9734 9.51304 30.4897 9.02829 30.018 9.21746L25.9296 10.853L22.6448 7.5682C22.4177 7.34106 22.0376 7.34106 21.8105 7.5682C18.8814 10.4973 18.8814 15.2631 21.8105 18.1923C23.2293 19.611 25.1158 20.3925 27.1224 20.3925C29.1291 20.3925 31.0156 19.611 32.4344 18.1922C32.6647 17.9616 32.6647 17.5881 32.4342 17.3578ZM29.1781 10.8242L28.2418 13.1652L26.8372 11.7605L29.1781 10.8242Z"  />
<path d="M36.3851 3.61758C34.9662 2.19858 33.0797 1.41716 31.0731 1.41716C30.7473 1.41716 30.4831 1.68125 30.4831 2.00715C30.4831 2.33305 30.7473 2.59714 31.0732 2.59714C32.7645 2.59714 34.3548 3.25589 35.5508 4.4519C36.7468 5.64782 37.4055 7.23801 37.4055 8.92946C37.4055 9.25536 37.6696 9.51946 37.9955 9.51946C38.3213 9.51946 38.5855 9.25528 38.5855 8.92946C38.5855 6.92274 37.804 5.03634 36.3851 3.61758Z"  />
<path d="M34.6051 5.39761C33.6617 4.45422 32.4073 3.93454 31.0731 3.93454C30.7473 3.93454 30.4831 4.19864 30.4831 4.52454C30.4831 4.85044 30.7473 5.11453 31.0731 5.11453C32.0922 5.11453 33.0502 5.51137 33.7708 6.23201C34.4914 6.95256 34.8882 7.91057 34.8882 8.92967C34.8882 9.25557 35.1524 9.51967 35.4782 9.51967C35.804 9.51967 36.0682 9.25557 36.0682 8.92967C36.0681 7.59545 35.5486 6.34108 34.6051 5.39761Z"  />
<path d="M32.8252 7.17723C32.3572 6.70936 31.735 6.45152 31.0731 6.45144C30.7473 6.45144 30.4831 6.71554 30.4831 7.04136C30.4831 7.36718 30.7471 7.63135 31.0729 7.63143C31.4197 7.63151 31.7457 7.7666 31.9908 8.01171C32.2359 8.25674 32.371 8.58271 32.371 8.92939C32.371 9.25529 32.6351 9.51939 32.961 9.51939C33.2868 9.51939 33.551 9.25529 33.551 8.92939C33.5509 8.26744 33.2931 7.64518 32.8252 7.17723Z"  />
<path d="M39.8319 32.7654L29.1523 22.0857C28.9252 21.8586 28.5451 21.8586 28.318 22.0857L25.6202 24.7834L22.6167 21.7799L23.5344 20.8621C23.7617 20.6348 23.7617 20.2549 23.5344 20.0277L19.9746 16.4678C19.7442 16.2376 19.3707 16.2374 19.1402 16.4678L18.2224 17.3856L15.2188 14.382L17.9165 11.6843C18.1469 11.4538 18.1469 11.0803 17.9165 10.8499L7.23686 0.170352C7.0098 -0.0567841 6.62968 -0.0567841 6.40254 0.170352L0.172814 6.40016C-0.0576046 6.63066 -0.0576046 7.00414 0.172814 7.23456L10.8525 17.9142C11.0795 18.1412 11.4596 18.1412 11.6868 17.9142L14.3845 15.2164L17.3881 18.22L16.4703 19.1378C16.2431 19.3651 16.2431 19.745 16.4703 19.9722L16.9431 20.445L16.0253 21.3627C15.7981 21.59 15.7981 21.9699 16.0253 22.1971L17.8052 23.9771C18.0323 24.2042 18.4124 24.2042 18.6396 23.9771L19.5573 23.0593L20.0301 23.5321C20.2575 23.7594 20.6371 23.7594 20.8644 23.5321L21.7823 22.6144L24.7858 25.618L22.0882 28.3157C21.8578 28.5462 21.8578 28.9196 22.0882 29.1501L32.7678 39.8297C32.9949 40.0568 33.375 40.0568 33.6021 39.8297L39.8319 33.5999C40.0624 33.3692 40.0624 32.9958 39.8319 32.7654ZM13.1051 7.70727L10.8246 9.98778L8.09908 7.26229L10.3796 4.98179L13.1051 7.70727ZM6.8197 1.42191L9.54519 4.14739L7.26468 6.4279L4.5392 3.70241L6.8197 1.42191ZM4.15126 9.54421L1.42437 6.81732L3.70488 4.53681L6.43036 7.26229L4.17767 9.51498C4.16821 9.52444 4.15985 9.53436 4.15126 9.54421ZM7.71106 13.1041L4.98269 10.3757C4.99253 10.3671 5.00253 10.3588 5.01183 10.3494L7.2646 8.09661L9.99008 10.8221L7.73731 13.0748C7.72809 13.0843 7.71966 13.0942 7.71106 13.1041ZM11.2696 16.6626L8.54272 13.9357C8.55257 13.9271 8.56257 13.9187 8.57194 13.9093L10.8247 11.6566L13.5502 14.3821L11.2696 16.6626ZM11.659 10.8222L13.9395 8.54166L16.6649 11.2671L14.3844 13.5477L11.659 10.8222ZM18.2224 22.7255L17.2768 21.7799L17.7774 21.2794L18.723 22.2249L18.2224 22.7255ZM20.4474 22.2805L17.7219 19.555L19.5575 17.7195L22.283 20.445L20.4474 22.2805ZM35.0206 29.6227L32.74 31.9032L30.0145 29.1777L32.2951 26.8972L35.0206 29.6227ZM28.7351 23.3373L31.4606 26.0627L29.18 28.3432L26.4546 25.6178L28.7351 23.3373ZM26.0667 31.4596L23.3398 28.7327L25.6203 26.4522L28.3458 29.1777L26.0931 31.4304C26.0837 31.4399 26.0753 31.4498 26.0667 31.4596ZM29.6265 35.0195L26.8981 32.2911C26.908 32.2825 26.918 32.2742 26.9273 32.2648L29.1801 30.012L31.9056 32.7375L29.6529 34.9902C29.6435 34.9997 29.6351 35.0096 29.6265 35.0195ZM33.185 38.578L30.4582 35.851C30.468 35.8424 30.478 35.8341 30.4874 35.8247L32.7401 33.5719L35.4656 36.2974L33.185 38.578ZM36.2999 35.4631L33.5744 32.7376L35.855 30.457L38.5805 33.1825L36.2999 35.4631Z"  />
</g>
<defs>
<clipPath id="clip0_548_146">
<rect width="40.0047" height="40" fill="white"/>
</clipPath>
</defs>
</svg>
