<svg width="40" height="40" viewBox="0 0 40 40" fill="none" xmlns="http://www.w3.org/2000/svg">
<path d="M7.4473 10.873C9.3444 10.873 10.8822 9.33642 10.8822 7.44095C10.8822 5.5458 9.3444 4.00926 7.4473 4.00926C5.55054 4.00926 4.01269 5.5458 4.01269 7.44095C4.01497 9.33544 5.55119 10.8707 7.4473 10.873ZM7.4473 5.34097C8.60834 5.34097 9.5494 6.28123 9.5494 7.44095C9.5494 8.60099 8.60834 9.54125 7.4473 9.54125C6.2866 9.54125 5.34553 8.60099 5.34553 7.44095C5.34684 6.28188 6.28725 5.34259 7.4473 5.34097Z"  />
<path d="M37.3311 29.5791L37.0737 22.8608L38.3278 21.1376L36.8072 18.3448L37.1124 17.4062L39.9854 16.0397V13.2579L37.1124 11.8914L36.8072 10.9528L38.3278 8.15996L36.691 5.91075L33.5629 6.49207L32.7634 5.9114L32.3501 2.75998L29.7043 1.90035L27.5153 4.20743H26.5274L24.3384 1.90035L21.6919 2.75998L21.5627 3.74283L12.3067 3.19207L11.6829 2.5688L11.5104 1.17045L9.01265 0.1333L7.89978 1.00203H6.99744L5.88164 0.1333L3.38255 1.16915L3.21074 2.5675L2.571 3.2067L1.17145 3.37869L0.133093 5.87694L1.00419 6.99147V7.89498L0.133093 9.00496L0.958963 10.9954L0.0393777 22.7756C0.018552 22.9258 0.00683759 23.077 0.003909 23.2282V23.2529H4.17664e-06V23.3049C-0.00194827 24.6558 0.680744 25.916 1.81379 26.6533C2.94684 27.3907 4.37666 27.5048 5.61253 26.957L9.5564 25.3151C8.91731 27.1179 9.65565 29.1201 11.3132 30.0772L5.2214 32.0384C3.20619 32.4399 1.82388 34.3025 2.02433 36.3459C2.22477 38.3893 3.9429 39.948 5.99781 39.9512H6.03295L30.5721 38.6654L30.948 39.5656L33.067 40L34.7871 38.3305L35.2251 38.1855L37.6034 38.4918L39.0397 36.8749L38.4524 34.5519L38.5458 34.0997L40 32.1947L39.3189 30.1439L37.3311 29.5791ZM22.9034 3.76591L23.9499 3.42648L25.9544 5.53914H28.087L30.0915 3.42648L31.1387 3.76591L31.5165 6.65269L33.2424 7.90571L36.1079 7.37316L36.7538 8.26205L35.3624 10.8201L36.022 12.8476L38.6525 14.0993V15.1982L36.022 16.45L35.3624 18.4774L36.7538 21.0349L36.1079 21.9238L33.2424 21.3912L31.5165 22.6442L31.1387 25.5307L30.0915 25.8704L28.087 23.7578H25.9544L23.9499 25.8704L22.9034 25.5307L22.525 22.6455L20.799 21.3919L17.9332 21.9244L17.287 21.0355L18.6784 18.4787L18.0194 16.4506L15.3889 15.1989V14.1L18.0194 12.8482L18.6784 10.8201L17.287 8.26335L17.9332 7.37446L20.799 7.90701L22.525 6.65204L22.9034 3.76591ZM1.66606 5.66984L2.10568 4.6044L3.19154 4.4711L4.47883 3.18686L4.61225 2.10225L5.67859 1.66268L6.54025 2.33504H8.36283L9.22058 1.66463L10.2869 2.1042L10.42 3.18817L11.7044 4.47468L12.7899 4.60766L13.2305 5.67309L12.5573 6.53402V8.35503L13.2305 9.21596L12.7899 10.2814L11.7044 10.4147L10.4168 11.7012L10.2833 12.7858L9.21733 13.2257L8.35567 12.5534H6.53635L5.67436 13.2257L4.60834 12.7858L4.47493 11.7012L3.18861 10.4079L2.10373 10.2749L1.66411 9.20946L2.33704 8.34853V6.53076L1.66606 5.66984ZM1.33285 23.3169L1.34066 23.2129C1.47505 21.8409 2.6901 20.8323 4.06492 20.9523C5.43974 21.0723 6.4615 22.2759 6.35542 23.6508C6.24967 25.0254 5.05577 26.0587 3.67899 25.9673C2.3019 25.8756 1.2554 24.6935 1.33285 23.3169ZM13.3285 23.9707C14.8006 23.9707 15.9941 25.1633 15.9941 26.6342C15.9941 28.105 14.8006 29.2976 13.3285 29.2976C11.856 29.2976 10.6628 28.105 10.6628 26.6342C10.6628 25.1633 11.856 23.9707 13.3285 23.9707ZM3.33212 35.9561C3.33505 34.9216 3.93736 33.9826 4.8768 33.5476L5.52109 33.3405C6.50869 33.1652 7.51092 33.5593 8.11422 34.3597C8.71751 35.1605 8.81904 36.2318 8.37747 37.1314C7.93557 38.0311 7.0251 38.6062 6.02254 38.6195H5.98967C4.52048 38.615 3.33212 37.424 3.33212 35.9561ZM9.11255 38.455C9.83917 37.556 10.1392 36.3859 9.93484 35.2486C9.73016 34.1114 9.04096 33.1188 8.04621 32.529L14.5552 30.4368C15.9613 29.9985 17.0123 28.8229 17.2905 27.3777C17.5688 25.9325 17.0292 24.4516 15.8864 23.523C14.7433 22.5948 13.182 22.3695 11.8228 22.9365L7.77385 24.6226C8.3586 22.9599 7.78166 21.1109 6.35477 20.0748C4.92756 19.0389 2.98947 19.062 1.58731 20.1314L2.25374 11.6365L2.57686 11.6765L3.2166 12.3157L3.38874 13.7141L5.88847 14.7473L7.00135 13.8818H7.90564L9.01786 14.7473L11.5104 13.7167L11.6829 12.3183L12.3226 11.6791L13.7222 11.5065L14.7566 9.01048L13.8901 7.89889V6.99147L14.7566 5.87954L14.2448 4.64374L21.3922 5.06641L21.2816 5.91205L20.4818 6.49207L17.3543 5.91075L15.7176 8.15996L17.2375 10.9528L16.9329 11.8895L14.06 13.2579V16.0397L16.9323 17.4062L17.2375 18.3448L15.7176 21.1376L17.3543 23.3868L20.4818 22.8055L21.2816 23.3855L21.6945 26.5376L24.341 27.3972L26.5303 25.0901H27.5179L29.7069 27.3972L32.3534 26.5376L32.7666 23.3862L33.5662 22.8055L35.7574 23.2129L35.9169 27.3793L35.7467 26.9723L33.627 26.5369L31.903 28.2055L31.465 28.3515L29.0867 28.0452L27.6504 29.6617L28.2364 31.985L28.143 32.437L26.6888 34.3415L27.3718 36.3927L29.6783 37.0482L30.0242 37.3545V37.359L9.11255 38.455ZM37.3024 33.5336L37.0863 34.5818L37.5748 36.5173L37.0743 37.0801L35.0929 36.8265L34.0774 37.1633L32.644 38.5529L31.9063 38.4023L31.137 36.5608L30.3375 35.8501L28.416 35.3042L28.1775 34.589L29.3893 33.0024L29.6044 31.9551L29.116 30.0193L29.6164 29.4559L31.5978 29.7105L32.614 29.3733L34.0481 27.9831L34.7858 28.1349L35.5557 29.9774L36.3552 30.6865L38.2767 31.2317L38.5145 31.947L37.3024 33.5336Z"  />
<path d="M5.33153 23.3048C5.33153 24.0402 4.73474 24.6365 3.99868 24.6365C3.26263 24.6365 2.66584 24.0402 2.66584 23.3048C2.66584 22.5693 3.26263 21.9731 3.99868 21.9731C4.73474 21.9731 5.33153 22.5693 5.33153 23.3048Z"  />
<path d="M14.6612 26.6343C14.6612 27.3698 14.0645 27.966 13.3284 27.966C12.5923 27.966 11.9955 27.3698 11.9955 26.6343C11.9955 25.8989 12.5923 25.3026 13.3284 25.3026C14.0645 25.3026 14.6612 25.8989 14.6612 26.6343Z"  />
<path d="M7.3303 35.9561C7.3303 36.6915 6.73352 37.2878 5.99746 37.2878C5.2614 37.2878 4.66461 36.6915 4.66461 35.9561C4.66461 35.2206 5.2614 34.6244 5.99746 34.6244C6.73352 34.6244 7.3303 35.2206 7.3303 35.9561Z"  />
<path d="M33.3215 29.9637C31.481 29.9637 29.9894 31.4544 29.9894 33.293C29.9894 35.1316 31.481 36.6223 33.3215 36.6223C35.1616 36.6223 36.6536 35.1316 36.6536 33.293C36.6513 31.4551 35.1606 29.966 33.3215 29.9637ZM33.3215 35.2906C32.2174 35.2906 31.3222 34.3962 31.3222 33.293C31.3222 32.1899 32.2174 31.2955 33.3215 31.2955C34.4256 31.2955 35.3207 32.1899 35.3207 33.293C35.3207 34.3962 34.4256 35.2906 33.3215 35.2906Z"  />
<path d="M26.6563 21.3073C30.3369 21.3073 33.3205 18.3262 33.3205 14.6487C33.3205 10.9713 30.3369 7.9902 26.6563 7.9902C22.9757 7.9902 19.9921 10.9713 19.9921 14.6487C19.996 18.3246 22.9773 21.3034 26.6563 21.3073ZM26.6563 9.32191C29.6006 9.32191 31.9877 11.7067 31.9877 14.6487C31.9877 17.5908 29.6006 19.9756 26.6563 19.9756C23.7118 19.9756 21.3249 17.5908 21.3249 14.6487C21.3282 11.7083 23.7131 9.32516 26.6563 9.32191Z"  />
<path d="M26.6565 18.644C28.8646 18.644 30.655 16.8552 30.655 14.6489C30.655 12.4426 28.8646 10.6538 26.6565 10.6538C24.448 10.6538 22.6579 12.4426 22.6579 14.6489C22.6602 16.8545 24.4489 18.6417 26.6565 18.644ZM26.6565 11.9855C28.1286 11.9855 29.3221 13.178 29.3221 14.6489C29.3221 16.1198 28.1286 17.3123 26.6565 17.3123C25.184 17.3123 23.9908 16.1198 23.9908 14.6489C23.9908 13.178 25.184 11.9855 26.6565 11.9855Z"  />
<path d="M35.9866 1.99756C35.9866 3.10071 36.8818 3.99512 37.9859 3.99512C39.09 3.99512 39.9852 3.10071 39.9852 1.99756C39.9852 0.894416 39.09 0 37.9859 0C36.8818 0 35.9866 0.894416 35.9866 1.99756ZM38.6523 1.99756C38.6523 2.36528 38.3539 2.66342 37.9859 2.66342C37.6179 2.66342 37.3195 2.36528 37.3195 1.99756C37.3195 1.62985 37.6179 1.33171 37.9859 1.33171C38.3539 1.33171 38.6523 1.62985 38.6523 1.99756Z"  />
<path d="M18.6598 1.33171C18.6598 2.06714 18.063 2.66342 17.3269 2.66342C16.5909 2.66342 15.9941 2.06714 15.9941 1.33171C15.9941 0.596278 16.5909 0 17.3269 0C18.063 0 18.6598 0.596278 18.6598 1.33171Z"  />
</svg>
