<svg width="40" height="40" viewBox="0 0 40 40" fill="none" xmlns="http://www.w3.org/2000/svg">
<path d="M38.1958 6.5625H30C29.6762 6.5625 29.4141 6.82465 29.4141 7.14844C29.4141 7.47223 29.6762 7.73438 30 7.73438H38.1958C38.5446 7.73438 38.8281 8.01788 38.8281 8.3667V30.9302C38.8281 31.279 38.5446 31.5625 38.1958 31.5625H1.8042C1.45538 31.5625 1.17188 31.279 1.17188 30.9302V8.3667C1.17188 8.01788 1.45538 7.73438 1.8042 7.73438H14.6777V8.90625H2.92969C2.6059 8.90625 2.34375 9.1684 2.34375 9.49219V24.9741C2.34375 25.2975 2.6059 25.56 2.92969 25.56C3.25348 25.56 3.51562 25.2975 3.51562 24.9741V10.0781H14.6777V13.2214L12.1692 14.4199C11.969 14.5157 11.8359 14.7226 11.8359 14.9487V24.5044C11.8359 24.7302 11.9656 24.9359 12.1692 25.0333L19.7473 28.6539C19.9115 28.7311 20.0967 28.7271 20.2527 28.6539L24.5129 26.6183C24.805 26.4789 24.9286 26.1288 24.7891 25.8371C24.6497 25.545 24.2993 25.4214 24.0076 25.5609L20.5859 27.1957V18.9386L26.9922 15.878V24.1351L26.1218 24.5508C25.8298 24.6902 25.7062 25.0403 25.8456 25.332C25.9851 25.6241 26.3351 25.7477 26.6269 25.6082L27.8308 25.0333C28.0344 24.9359 28.1641 24.7302 28.1641 24.5044V14.9487C28.1641 14.7253 28.0341 14.5172 27.8308 14.4199L25.3223 13.2214V10.0781H36.4844V29.2188H3.51562V27.4741C3.51562 27.1503 3.25348 26.8881 2.92969 26.8881C2.6059 26.8881 2.34375 27.1503 2.34375 27.4741V29.8047C2.34375 30.1285 2.6059 30.3906 2.92969 30.3906H37.0703C37.3941 30.3906 37.6562 30.1285 37.6562 29.8047V9.49219C37.6562 9.1684 37.3941 8.90625 37.0703 8.90625H25.3223V7.73438H27.5C27.8238 7.73438 28.0859 7.47223 28.0859 7.14844C28.0859 6.82465 27.8238 6.5625 27.5 6.5625H25.3223V5.39062H30.5762C30.9 5.39062 31.1621 5.12848 31.1621 4.80469V3.41492C31.8442 3.17291 32.334 2.52167 32.334 1.75781C32.334 0.788574 31.5454 0 30.5762 0C29.6069 0 28.8184 0.788574 28.8184 1.75781C28.8184 2.52167 29.3082 3.17291 29.9902 3.41492V4.21875H24.7363C24.4125 4.21875 24.1504 4.4809 24.1504 4.80469V6.5625H20.5859V3.41492C21.268 3.17291 21.7578 2.52167 21.7578 1.75781C21.7578 0.788574 20.9692 0 20 0C19.0308 0 18.2422 0.788574 18.2422 1.75781C18.2422 2.52167 18.732 3.17291 19.4141 3.41492V6.5625H15.8496V4.80469C15.8496 4.4809 15.5875 4.21875 15.2637 4.21875H10.0098V3.41492C10.6918 3.17291 11.1816 2.52167 11.1816 1.75781C11.1816 0.788574 10.3931 0 9.42383 0C8.45459 0 7.66602 0.788574 7.66602 1.75781C7.66602 2.52167 8.15582 3.17291 8.83789 3.41492V4.80469C8.83789 5.12848 9.10004 5.39062 9.42383 5.39062H14.6777V6.5625H1.8042C0.809326 6.5625 0 7.37183 0 8.3667V30.9302C0 31.925 0.809326 32.7344 1.8042 32.7344H14.5074C14.2807 34.8837 12.8595 36.1389 12.4115 36.4844H9.92188C8.95264 36.4844 8.16406 37.2729 8.16406 38.2422C8.16406 39.2114 8.95264 40 9.92188 40H30.0781C31.0474 40 31.8359 39.2114 31.8359 38.2422C31.8359 37.2729 31.0474 36.4844 30.0781 36.4844H27.59C27.1478 36.1401 25.7217 34.8737 25.4932 32.7344H38.1958C39.1907 32.7344 40 31.925 40 30.9302V8.3667C40 7.37183 39.1907 6.5625 38.1958 6.5625ZM30.5762 1.17188C30.8994 1.17188 31.1621 1.43463 31.1621 1.75781C31.1621 2.08099 30.8994 2.34375 30.5762 2.34375C30.253 2.34375 29.9902 2.08099 29.9902 1.75781C29.9902 1.43463 30.253 1.17188 30.5762 1.17188ZM20 1.17188C20.3232 1.17188 20.5859 1.43463 20.5859 1.75781C20.5859 2.08099 20.3232 2.34375 20 2.34375C19.6768 2.34375 19.4141 2.08099 19.4141 1.75781C19.4141 1.43463 19.6768 1.17188 20 1.17188ZM9.42383 1.17188C9.74701 1.17188 10.0098 1.43463 10.0098 1.75781C10.0098 2.08099 9.74701 2.34375 9.42383 2.34375C9.10065 2.34375 8.83789 2.08099 8.83789 1.75781C8.83789 1.43463 9.10065 1.17188 9.42383 1.17188ZM15.8496 10.0781H19.4141V10.9586L15.8496 12.6617V10.0781ZM26.2189 14.9487L20 17.9196L13.7811 14.9487L20 11.9775L26.2189 14.9487ZM13.0078 15.878L19.4141 18.9386V27.1957L13.0078 24.1351V15.878ZM24.1504 12.6617L20.5859 10.9586V10.0781H24.1504V12.6617ZM24.1504 7.73438V8.90625H20.5859V7.73438H24.1504ZM19.4141 7.73438V8.90625H15.8496V7.73438H19.4141ZM30.6641 38.2422C30.6641 38.5654 30.4013 38.8281 30.0781 38.8281H9.92188C9.59869 38.8281 9.33594 38.5654 9.33594 38.2422C9.33594 37.919 9.59869 37.6562 9.92188 37.6562H30.0781C30.4013 37.6562 30.6641 37.919 30.6641 38.2422ZM25.9094 36.4844H14.0906C14.7775 35.6821 15.5396 34.4318 15.6857 32.7344H24.3143C24.4604 34.4318 25.2225 35.6821 25.9094 36.4844Z"/>
</svg>
