<svg width="35" height="40" viewBox="0 0 35 40" fill="none" xmlns="http://www.w3.org/2000/svg">
<g clip-path="url(#clip0_548_170)">
<path d="M7.94678 4.92878C8.073 5.07058 8.2385 5.14156 8.40383 5.14156C8.56916 5.14156 8.73466 5.07058 8.86088 4.92878L9.37353 4.3529L9.88617 4.92878C10.0124 5.07058 10.1779 5.14156 10.3432 5.14156C10.5086 5.14156 10.6741 5.07058 10.8003 4.92878C11.0527 4.6452 11.0527 4.18551 10.8003 3.90192L10.2876 3.32604L10.8003 2.75015C11.0527 2.46657 11.0527 2.00688 10.8003 1.72329C10.5478 1.43971 10.1386 1.43971 9.88617 1.72329L9.37353 2.29918L8.86088 1.72329C8.60844 1.43971 8.19922 1.43971 7.94678 1.72329C7.69433 2.00688 7.69433 2.46657 7.94678 2.75015L8.45943 3.32604L7.94678 3.90192C7.69417 4.18551 7.69417 4.6452 7.94678 4.92878Z"  />
<path d="M14.2225 10.2249H16.1619V13.856C16.1619 14.1826 16.3556 14.4687 16.6357 14.5559C16.6931 14.5737 16.751 14.5822 16.8083 14.5822C17.0312 14.5822 17.2436 14.4524 17.3627 14.2298L21.2414 6.9677C21.3614 6.7433 21.3646 6.4639 21.2497 6.23623C21.1351 6.00856 20.9202 5.86786 20.6873 5.86786H18.7479V2.96302C18.7479 2.64313 18.5614 2.36063 18.2886 2.26804C18.0161 2.17399 17.7216 2.294 17.5636 2.56016L13.6848 9.09604C13.5526 9.31881 13.5401 9.6053 13.6526 9.84131C13.7651 10.0775 13.9841 10.2249 14.2225 10.2249ZM17.4548 5.36133V6.59389C17.4548 6.99494 17.7442 7.3201 18.1013 7.3201H19.5455L17.4548 11.2342V9.49873C17.4548 9.09768 17.1653 8.77252 16.8083 8.77252H15.4305L17.4548 5.36133Z"  />
<path d="M34.2626 34.9164H32.9697V26.7229C33.4374 26.269 33.7799 25.6476 33.9245 24.9046C34.0006 24.5129 33.7799 24.1256 33.4311 24.0397C33.2658 23.9991 33.1043 24.0379 32.9697 24.1261V22.3656C33.4374 21.9117 33.7799 21.2903 33.9245 20.5474C34.0006 20.1556 33.7799 19.7683 33.4311 19.6825C33.2658 19.6427 33.1043 19.6814 32.9697 19.7694V12.0407C32.9697 11.6344 32.8461 11.2628 32.6445 10.96C33.5994 10.4233 34.2626 9.32527 34.2626 8.04659C34.2626 6.2445 32.9577 4.77865 31.3535 4.77865C29.7493 4.77865 28.4444 6.2445 28.4444 8.04659C28.4444 9.32527 29.1077 10.4233 30.0625 10.96C29.861 11.2628 29.7374 11.6344 29.7374 12.0407V21.0363C29.5861 20.8264 29.4636 20.5675 29.3993 20.2369C29.0943 18.6718 27.9312 17.62 26.5051 17.62C25.0789 17.62 23.9158 18.6718 23.6108 20.2369C23.3989 21.3255 22.5998 21.712 21.9798 21.712C21.3598 21.712 20.5606 21.3255 20.3488 20.2369C20.0438 18.6718 18.8806 17.62 17.4545 17.62C16.0284 17.62 14.8653 18.6718 14.5603 20.2369C14.3484 21.3255 13.5493 21.712 12.9293 21.712C12.3093 21.712 11.5101 21.3255 11.2983 20.2369C10.9933 18.6718 9.83014 17.62 8.40404 17.62C6.97794 17.62 5.81479 18.6718 5.50982 20.2369C5.4455 20.5675 5.32299 20.8264 5.17172 21.0363V12.0407C5.17172 11.6344 5.04808 11.2628 4.84655 10.96C5.80137 10.4233 6.46465 9.32527 6.46465 8.04659C6.46465 6.2445 5.15976 4.77865 3.55556 4.77865C1.95135 4.77865 0.646465 6.2445 0.646465 8.04659C0.646465 9.32527 1.30974 10.4233 2.26457 10.96C2.06303 11.2628 1.93939 11.6344 1.93939 12.0407V19.7691C1.80444 19.6807 1.64283 19.6418 1.47798 19.6825C1.12921 19.7683 0.908606 20.1554 0.984565 20.5474C1.12921 21.2901 1.47168 21.9116 1.93939 22.3656V24.1272C1.80444 24.039 1.64283 24.0003 1.47798 24.0399C1.12921 24.1258 0.908606 24.5129 0.984565 24.9048C1.12921 25.6476 1.47168 26.269 1.93939 26.7231V34.9165H0.646465C0.289455 34.9165 0 35.2417 0 35.6427V39.2738C0 39.6748 0.289455 40 0.646465 40H34.2626C34.6196 40 34.9091 39.6748 34.9091 39.2738V35.6427C34.9091 35.2415 34.6196 34.9164 34.2626 34.9164ZM31.6768 34.9164H31.0303V27.5217C31.2541 27.5217 31.4681 27.4872 31.6768 27.4375V34.9164ZM3.87879 21.712C3.67337 21.712 3.44921 21.6645 3.23232 21.5683V12.0407C3.23232 11.8403 3.37713 11.6776 3.55556 11.6776C3.73398 11.6776 3.87879 11.8403 3.87879 12.0407V21.712ZM5.17172 34.9164V27.1913C5.97091 26.7665 6.56824 25.9564 6.77301 24.9048C6.98489 23.8162 7.78408 23.4297 8.40404 23.4297C9.024 23.4297 9.82319 23.8162 10.0351 24.9048C10.34 26.47 11.5032 27.5217 12.9293 27.5217C14.3554 27.5217 15.5185 26.47 15.8235 24.9048C16.0354 23.8162 16.8346 23.4297 17.4545 23.4297C18.0745 23.4297 18.8737 23.8162 19.0856 24.9048C19.3905 26.47 20.5537 27.5217 21.9798 27.5217C23.4059 27.5217 24.5691 26.47 24.874 24.9048C25.0859 23.8162 25.8851 23.4297 26.5051 23.4297C27.125 23.4297 27.9242 23.8162 28.1361 24.9048C28.341 25.9564 28.9382 26.7666 29.7374 27.1913V34.9164H5.17172ZM31.6768 25.9253C31.4599 26.0216 31.2357 26.0691 31.0303 26.0691V23.1643C31.2541 23.1643 31.4681 23.1298 31.6768 23.08V25.9253ZM31.6768 21.5681C31.4599 21.6643 31.2357 21.7119 31.0303 21.7119V12.0406C31.0303 11.8401 31.1751 11.6775 31.3535 11.6775C31.532 11.6775 31.6768 11.8401 31.6768 12.0406V21.5681ZM31.3535 6.23107C32.2447 6.23107 32.9697 7.04551 32.9697 8.04659C32.9697 9.04767 32.2447 9.86212 31.3535 9.86212C30.4624 9.86212 29.7374 9.04767 29.7374 8.04659C29.7374 7.04551 30.4624 6.23107 31.3535 6.23107ZM6.77301 20.5476C6.98489 19.459 7.78408 19.0725 8.40404 19.0725C9.024 19.0725 9.82319 19.459 10.0351 20.5476C10.34 22.1127 11.5032 23.1645 12.9293 23.1645C14.3554 23.1645 15.5185 22.1127 15.8235 20.5476C16.0354 19.459 16.8346 19.0725 17.4545 19.0725C18.0745 19.0725 18.8737 19.459 19.0856 20.5476C19.3905 22.1127 20.5537 23.1645 21.9798 23.1645C23.4059 23.1645 24.5691 22.1127 24.874 20.5476C25.0859 19.459 25.8851 19.0725 26.5051 19.0725C27.125 19.0725 27.9242 19.459 28.1361 20.5476C28.341 21.5991 28.9382 22.4094 29.7374 22.834V25.3936C29.5861 25.1837 29.4636 24.9248 29.3993 24.5942C29.0943 23.029 27.9312 21.9773 26.5051 21.9773C25.0789 21.9773 23.9158 23.029 23.6108 24.5942C23.3989 25.6828 22.5998 26.0693 21.9798 26.0693C21.3598 26.0693 20.5606 25.6828 20.3488 24.5942C20.0438 23.029 18.8806 21.9773 17.4545 21.9773C16.0284 21.9773 14.8653 23.029 14.5603 24.5942C14.3484 25.6828 13.5493 26.0693 12.9293 26.0693C12.3093 26.0693 11.5101 25.6828 11.2983 24.5942C10.9933 23.029 9.83014 21.9773 8.40404 21.9773C6.97794 21.9773 5.81479 23.029 5.50982 24.5942C5.4455 24.9248 5.32299 25.1837 5.17172 25.3936V22.834C5.97091 22.4092 6.56824 21.5991 6.77301 20.5476ZM3.55556 6.23107C4.44671 6.23107 5.17172 7.04551 5.17172 8.04659C5.17172 9.04767 4.44671 9.86212 3.55556 9.86212C2.6644 9.86212 1.93939 9.04767 1.93939 8.04659C1.93939 7.04551 2.6644 6.23107 3.55556 6.23107ZM3.87879 23.1645V26.0693C3.67337 26.0693 3.44921 26.0217 3.23232 25.9255V23.0804C3.44097 23.13 3.65495 23.1645 3.87879 23.1645ZM3.23232 27.4375C3.44097 27.4872 3.65495 27.5217 3.87879 27.5217V34.9164H3.23232V27.4375ZM33.6162 38.5474H1.29293V36.3688H33.6162V38.5474Z"  />
<path d="M24.3436 30.5006C23.9618 30.5006 23.6523 30.8483 23.6523 31.2771C23.6523 31.706 23.9618 32.0535 24.3436 32.0535C24.7253 32.0535 25.0347 31.7058 25.0347 31.2771C25.0347 30.8485 24.7253 30.5006 24.3436 30.5006Z"  />
<path d="M30.1625 1.55282C30.5442 1.55282 30.8535 1.20515 30.8535 0.7765C30.8535 0.347855 30.544 0 30.1625 0C29.7809 0 29.4712 0.347673 29.4712 0.7765C29.4712 1.20533 29.7807 1.55282 30.1625 1.55282Z"  />
</g>
<defs>
<clipPath id="clip0_548_170">
<rect width="34.9091" height="40" fill="white"/>
</clipPath>
</defs>
</svg>
